
<svg width="252px" height="771px" viewBox="0 0 252 771" version="1.1" xmlns="http://www.w3.org/2000/svg" xmlns:xlink="http://www.w3.org/1999/xlink">
    <g id="Team" stroke="none" stroke-width="1" fill="none" fill-rule="evenodd" opacity="0.70219494" stroke-linecap="square">
        <g id="Desktop" transform="translate(0.000000, -220.000000)" stroke="#7DF5FC" stroke-width="2">
            <g id="network-Group" transform="translate(-132.000000, 221.000000)">
                <path d="M0,0.5 L382,1.5" id="Line25"></path>
                <path d="M0,189.5 L382,190.5" id="Line24"></path>
                <path d="M0,384.5 L382,385.5" id="Line23"></path>
                <path d="M0,573.5 L382,574.5" id="Line22"></path>
                <path d="M0,767.5 L382,768.5" id="Line21"></path>
                <path d="M0,0.5 L382,768" id="Line20"></path>
                <path d="M0,0.5 L382,189.5" id="Line19"></path>
                <path d="M0,0.5 L382,384" id="Line18"></path>
                <path d="M0,0.5 L382,574" id="Line17"></path>
                <path d="M382,1.5 L0,192.25" id="Line16"></path>
                <path d="M382,1.5 L0,385" id="Line15"></path>
                <path d="M382,1.5 L0,571" id="Line14"></path>
                <path d="M382,193.25 L0,571" id="Line13"></path>
                <path d="M382,385 L0,571" id="Line12"></path>
                <path d="M382,385 L0,193.25" id="Line11"></path>
                <path d="M0,382.125 L382,193.25" id="Line10"></path>
                <path d="M0,382.125 L382,576.5" id="Line09"></path>
                <path d="M0,191 L382,768" id="Line08"></path>
                <path d="M0,191 L382,574.75" id="Line07"></path>
                <path d="M0,381.5 L382,768" id="Line06"></path>
                <path d="M0,573 L382,768" id="Line05"></path>
                <path d="M382,1.5 L0,768" id="Line04"></path>
                <path d="M382,191 L0,768" id="Line03"></path>
                <path d="M382,385 L0,768" id="Line02"></path>
                <path d="M382,576.5 L0,768" id="Line01"></path>
            </g>
        </g>
    </g>
</svg>