<svg xmlns="http://www.w3.org/2000/svg" viewBox="0 0 335.33 408.39"><defs><style>.cls-1{fill:#1e489b;}.cls-2{fill:#274ca8;}.cls-3{fill:#92c3c9;}.cls-4{fill:#224099;}.cls-5{fill:#86b2b8;}.cls-6{fill:#53a6b7;}.cls-7,.cls-8{fill:#7f3f97;}.cls-7{opacity:0.19;}.cls-8{opacity:0.41;}.cls-9{fill:#9375f2;}</style></defs><title>Asset 1</title><g id="Layer_2" data-name="Layer 2"><g id="Layer_4" data-name="Layer 4"><g id="_Group_" data-name="&lt;Group&gt;"><polygon class="cls-1" points="335.33 117.92 335.33 214.73 251.49 263.14 251.49 166.36 335.33 117.92"/><polygon class="cls-2" points="167.65 117.96 167.65 117.96 167.65 117.92 251.49 69.51 335.33 117.92 251.49 166.36 167.65 117.96"/><polygon class="cls-1" points="251.49 263.17 251.49 359.99 167.65 408.39 167.65 311.58 251.49 263.17"/><polygon class="cls-3" points="251.49 263.14 251.49 263.17 167.68 214.79 167.71 214.77 251.49 263.14"/><polygon class="cls-4" points="251.49 166.36 251.49 263.14 167.71 214.77 251.49 166.36"/><polygon class="cls-4" points="167.65 117.96 251.49 166.36 167.71 214.77 167.65 214.73 167.65 117.96 167.65 117.96"/><polygon class="cls-2" points="251.49 263.17 167.65 311.58 167.65 311.52 167.65 308.69 167.65 214.81 167.68 214.79 251.49 263.17"/><polygon class="cls-1" points="167.65 214.77 167.61 214.79 83.81 166.36 83.84 166.34 167.65 117.96 167.65 214.73 167.71 214.77 167.68 214.79 167.65 214.77"/><polygon class="cls-5" points="167.68 214.79 167.65 214.81 167.65 214.77 167.68 214.79"/><polygon class="cls-4" points="167.65 311.58 167.65 408.39 83.81 359.99 83.81 263.63 83.81 263.17 167.65 311.58"/><polygon class="cls-2" points="167.65 311.52 167.65 311.58 83.81 263.17 167.61 214.79 167.65 214.81 167.65 308.69 167.65 311.52"/><polygon class="cls-6" points="167.65 214.77 167.65 214.81 167.61 214.79 167.65 214.77"/><polygon class="cls-1" points="167.61 214.79 83.81 263.17 83.81 166.86 83.81 166.36 167.61 214.79"/><polygon class="cls-7" points="167.71 312.12 167.71 215.34 251.55 166.9 251.55 263.71 167.71 312.12"/><polygon class="cls-2" points="167.68 117.9 83.84 166.34 0.01 117.94 0 117.94 0 117.9 83.84 69.49 167.68 117.9"/><polygon class="cls-8" points="167.71 214.23 167.71 311.04 83.87 262.64 83.87 166.28 83.87 165.84 83.87 165.82 167.71 214.23"/><path class="cls-9" d="M148.35,238.69A18.31,18.31,0,0,1,153,226a26.55,26.55,0,0,1,9.23-6.94,1.19,1.19,0,0,0,.18-.13c0-.49-.1-1-.13-1.51-.07-1.62-.13-3.24-.18-4.86a3.08,3.08,0,0,0-.41-1.48,4,4,0,0,1-.43-1.3c-.29-1.83-.57-3.66-.8-5.5-.13-1-.19-2.08-.25-3.12-.2-3.44-.4-6.88-.58-10.32q-.21-4.21-.36-8.42c-.11-3.3-.27-6.6-.24-9.9a61.88,61.88,0,0,1,1-11.49,54,54,0,0,1,4-12.08c1.1-2.4,2.07-4.85,3-7.3a47.22,47.22,0,0,1,4.26-8.15l1.56-2.46a2.52,2.52,0,0,0-.28-.22,8.43,8.43,0,0,1-3.05-3.15c-.66-1.12-1.37-2.23-1.94-3.39a24.61,24.61,0,0,0-3.63-5.6,59.89,59.89,0,0,1-4.62-6.19c-.84-1.25-1.76-2.44-2.65-3.65a4.59,4.59,0,0,0-.39-.42c-.71.15-1.38.32-2.05.44a14.42,14.42,0,0,0-5,2c-2.3,1.4-4.58,2.84-6.88,4.24s-4.87,2.92-7.33,4.34c-2.91,1.67-5.85,3.31-8.79,4.93a36.08,36.08,0,0,1-9.08,3.43,16.38,16.38,0,0,0-6.76,3.76,22.32,22.32,0,0,0-4.26,5.13,31.08,31.08,0,0,0-3.91,7.63c-.19.64-.36,1.28-.53,1.93a3.88,3.88,0,0,1-2.15,2.31c.68-4,2.64-7.32,4.77-10.6a33.45,33.45,0,0,1,7.91-8.71L97.54,131.7l-1.57.17h-5a12.15,12.15,0,0,1-1.44-.27q-3.39-1.06-6.76-2.18a3.91,3.91,0,0,1-2.14-1.93.7.7,0,0,1,0-.87,6.12,6.12,0,0,1,2-1.83c.15.18.3.33.43.51a4.43,4.43,0,0,0,2.29,1.77q3.54,1.15,7.1,2.27c1.66.52,3.37.25,5.06.25l1-.17A42,42,0,0,0,95,122.52a44.86,44.86,0,0,0-4.48-5.64c-1-1.1-1.86-2.28-2.83-3.47a4.82,4.82,0,0,1,2.08-2.08c.57.65,1.12,1.27,1.66,1.9.87,1,1.71,2.11,2.59,3.16a41.3,41.3,0,0,1,4.74,7.06c.87,1.63,1.67,3.31,2.49,5,.32.64.31.65,1,.55a127.78,127.78,0,0,0,19-4,39.72,39.72,0,0,0,7.9-3.35c4.51-2.55,9-5.09,13.5-7.71,2.1-1.23,4.08-2.66,6.16-3.91a28.19,28.19,0,0,1,6.25-3.08,3.56,3.56,0,0,0-.26-.41c-2-2.3-4-4.65-6.12-6.88-1.31-1.38-2.81-2.59-4.25-3.84-4.37-3.8-8.73-7.61-13.13-11.37-1.41-1.2-2.94-2.25-4.43-3.39a3.43,3.43,0,0,0-.48.27.7.7,0,0,1-.94,0,12.27,12.27,0,0,0-5.93-1.76,4.28,4.28,0,0,0-.76-.13l-9,0a3.82,3.82,0,0,0-.67.12h-.35c-.83,0-1.66,0-2.49,0a9.61,9.61,0,0,0-1,.13c-.83.32-1.68.61-2.5,1a24.73,24.73,0,0,0-5.67,4,49.83,49.83,0,0,1-8.8,6,50.2,50.2,0,0,1-7.13,2.75s-.11,0-.24,0a2.59,2.59,0,0,1,.22-.51A4.81,4.81,0,0,1,83.44,91c2.1-.75,4.22-1.46,6.24-2.4a38.35,38.35,0,0,0,7.84-5.28c1.53-1.24,3.09-2.44,4.64-3.65l.12-.1s0-.05,0-.05l-1.36,0h-.17l-1.74-.17A56,56,0,0,1,85,75.81a47.15,47.15,0,0,1-7.33-3.36c-.76-.48-1.49-1-2.25-1.48a4.9,4.9,0,0,0-.69-.31l-5.61,0a3.29,3.29,0,0,0-.66.14h-.34L65.88,71l-.35,0c-.77,0-1.54,0-2.31,0a8.91,8.91,0,0,0-1,.14l-.34,0-2.45.17a29.4,29.4,0,0,0-4.66,1,16.66,16.66,0,0,1-3.31.63A4.2,4.2,0,0,1,47,70.4c-.65-1.42-1.19-2.89-1.78-4.34a1.24,1.24,0,0,1,.31-1.49L47,63.28c.15.29.25.45.33.62.65,1.42,1.23,2.88,1.94,4.26a4.38,4.38,0,0,0,4.92,2.41c1.22-.22,2.42-.57,3.64-.82,1-.2,2-.33,3-.48l1.27-.18,4.58,0a1.85,1.85,0,0,0,.48-.14l.5,0,2.28-.16.33,0c.65,0,1.3,0,2,0,.16,0,.36,0,.24-.3-1.22-1.35-2.47-2.69-3.67-4.07a15.79,15.79,0,0,1-4-11.86c.21-3.06.74-6.09,1.14-9.13.16-1.22,1.07-1.84,2-2.58a3.12,3.12,0,0,1,0,1.3c-.25,2.54-.58,5.07-.75,7.61a16.07,16.07,0,0,0,4,11.94,47.78,47.78,0,0,0,5.4,5.65,30.58,30.58,0,0,0,8.31,5c.13.05.27.08.45.14a18.65,18.65,0,0,1,0-2.2c.15-1.23.41-2.45.6-3.69.15-1,.3-2.06.39-3.1a8.3,8.3,0,0,0-.42-3.34,16,16,0,0,0-3.09-5.76,5.15,5.15,0,0,1,2-2.07,7.83,7.83,0,0,1,.85.94,14.38,14.38,0,0,1,2.71,7.24A26.7,26.7,0,0,1,88,64.73c-.17,1.35-.47,2.68-.61,4a9.23,9.23,0,0,0,1,4.62c.21.48.61.59,1,.74A50.91,50.91,0,0,0,97,76.25c1.33.27,2.66.56,4,.82a5.79,5.79,0,0,0,.95,0l1.76.15.5,0a2.47,2.47,0,0,0,.57.14q2.82,0,5.65,0a2.51,2.51,0,0,0,.57-.14H122c0-.37-.31-.46-.52-.62q-1.37-1-2.76-2a17.44,17.44,0,0,1-4.07-3.88c-1.21-1.62-2.51-3.19-3.61-4.89a27.57,27.57,0,0,1-3.9-10.59c-.47-2.8-.75-5.62-1.08-8.44a5,5,0,0,0-.78-2.25,10.62,10.62,0,0,0-4.17-3.7c-1.77-.92-3.56-1.82-5.24-2.9a27.48,27.48,0,0,1-5.79-5.09A14.74,14.74,0,0,1,87,26a25,25,0,0,1-.26-7.61c.15-1.5.34-3,.6-4.47a4.73,4.73,0,0,1,2.41-3.22c.08.11.15.16.14.19a12.72,12.72,0,0,0-.77,3.46A32.24,32.24,0,0,0,89,22.46a16.47,16.47,0,0,0,5.1,10A35.37,35.37,0,0,0,101.85,38c1.15.6,2.23,1.34,3.35,2l.16,0c0-.69,0-1.39,0-2.08,0-2.9-.24-5.8-.07-8.68a33.36,33.36,0,0,1,1.19-6.12,4,4,0,0,1,2.16-2.23,2.8,2.8,0,0,1,0,.6c-1.26,4.66-1.19,9.4-.83,14.16.23,3,.49,6.06.76,9.09a65.68,65.68,0,0,0,1.52,10.36c.21.84.48,1.66.75,2.58a1.68,1.68,0,0,0,.31-.26q3-4.84,6-9.68c1.29-2.1,2.62-4.17,3.8-6.33a23.17,23.17,0,0,0,2.73-10.85,29.15,29.15,0,0,0-.48-6.49,1.21,1.21,0,0,1,.28-1.13,4,4,0,0,1,1.79-1.43,35.74,35.74,0,0,1,.49,7.47,31,31,0,0,1-1.16,7.37c.14-.09.28-.16.41-.26,2.2-1.7,4.41-3.39,6.59-5.11a19.33,19.33,0,0,0,6.4-8,25.85,25.85,0,0,0,1.33-5.3c.14-.83.24-1.66.39-2.49a3.57,3.57,0,0,1,1.94-2.33l.18.09c-.09.7-.17,1.41-.27,2.11a22.57,22.57,0,0,1-2.23,7.81,26.29,26.29,0,0,1-4.24,5.7,54.77,54.77,0,0,1-7.09,6c-1.35,1-2.63,2.09-3.93,3.15a1.74,1.74,0,0,0-.47.6,59.5,59.5,0,0,1-4,7l-5.79,9.19a16.8,16.8,0,0,0-1.94,4.63,1.76,1.76,0,0,0,.11,1.26,25,25,0,0,0,3.09,5c.66.84,1.33,1.68,2,2.53a19.87,19.87,0,0,0,4.59,4.34,62.64,62.64,0,0,1,6.28,4.94c1,.92,2.14,1.78,3.26,2.6a71.38,71.38,0,0,1,6,5c1.14,1,2.34,2,3.51,3l4,3.43,1.06.93c.1-.58.16-1,.22-1.36a29.59,29.59,0,0,1,1.72-6c.89-2.23,1.79-4.46,2.75-6.67a69.26,69.26,0,0,1,4.14-7.34c2.25-3.85,4.43-7.75,6.7-11.58a15.27,15.27,0,0,0,1.77-5,26.11,26.11,0,0,0,.19-8.22c-.48-3.94-.93-7.88-1.36-11.82-.14-1.27-.22-2.54-.32-3.81v-.34l-.16-3.66V26a2.34,2.34,0,0,1,1.37-2.62l.3,0,0,1.54v.34a116.31,116.31,0,0,0,1,12.11c.32,2.59.69,5.17,1,7.75a32.22,32.22,0,0,1,.08,5.81c0,.29,0,.57,0,.91.42-.12.47-.47.59-.73.73-1.67,1.42-3.36,2.18-5,1.29-2.85,2.62-5.68,3.91-8.53a41.39,41.39,0,0,0,3-8.22,36.17,36.17,0,0,0,.59-9.16c-.05-1.33,0-2.66.08-4a1.46,1.46,0,0,1,.38-.85c.41-.44.89-.81,1.35-1.22l.3,0c0,1.09-.13,2.18-.14,3.27,0,1.81,0,3.62,0,5.43l.18-.05c1.16-1.14,2.25-2.34,3.48-3.39a18.18,18.18,0,0,0,4.91-6.33c1.25-2.74,2.53-5.47,3.81-8.19q.74-1.57,1.51-3.13A4.24,4.24,0,0,1,193,0c0,.18.05.27,0,.34-1.69,3.66-3.37,7.31-5.07,11a21.52,21.52,0,0,1-4.11,6.2c-1.14,1.15-2.35,2.23-3.52,3.36-.94.91-1.87,1.82-2.78,2.76a1.33,1.33,0,0,0-.37.74,31.91,31.91,0,0,1-3.06,10.54c-1.14,2.51-2.34,5-3.47,7.49-.78,1.72-1.49,3.46-2.22,5.19a76.53,76.53,0,0,1-4,7.91c-.34.6-.58,1.26-.89,1.88a4.67,4.67,0,0,1-.71,1.28,11.35,11.35,0,0,0-1.66,2.43c-2.28,3.9-4.53,7.82-6.85,11.7a61.07,61.07,0,0,0-4.49,9.68,31.19,31.19,0,0,0-2,7.19,10.17,10.17,0,0,0,0,3.11,4.23,4.23,0,0,1-.2,1.26c.43.38.93.85,1.46,1.29a46.27,46.27,0,0,1,5.27,5.53c1.21,1.44,2.47,2.84,3.65,4.31s2.36,2.94,3.41,4.49a77.15,77.15,0,0,0,5.14,7,23.74,23.74,0,0,1,3.08,4.82c.82,1.63,1.72,3.21,2.63,4.79a5.6,5.6,0,0,0,2.35,2.11c.16-.2.33-.39.48-.59a47.72,47.72,0,0,1,8.26-9c2.31-2,4.54-4.05,6.83-6,1.92-1.67,3.88-3.31,5.85-4.93a3.36,3.36,0,0,0,1-1.29,17.94,17.94,0,0,0,1.33-5,39.65,39.65,0,0,0-.07-8.33c-.07-.72-.18-1.44-.2-2.16a8.54,8.54,0,0,0-1.49-4.11,17.24,17.24,0,0,0-5.19-5.3,74.18,74.18,0,0,1-7.7-6.22c-1-.93-2.12-1.8-3.12-2.77a13,13,0,0,1-4.2-9.16c0-1.16-.12-2.31-.19-3.47a1.54,1.54,0,0,1,.36-1.13,6.14,6.14,0,0,1,2.2-1.87c0,.35.07.62.09.88a30.89,30.89,0,0,0,.88,5.92,12.37,12.37,0,0,0,3,5.15c1.14,1.19,2.43,2.23,3.65,3.34a1.88,1.88,0,0,0,.32.18l.27-.37c1.2-1.81,2.36-3.65,3.62-5.42a17.62,17.62,0,0,0,3.24-8.33,23.56,23.56,0,0,0-.19-5.2c-.18-1.63-.36-3.27-.55-4.9a1.49,1.49,0,0,1,.32-1.13,5.09,5.09,0,0,1,2.15-1.78,5.89,5.89,0,0,1,.15.65c.22,1.81.4,3.63.64,5.44a18.94,18.94,0,0,1-2.87,12.54,21.24,21.24,0,0,1-1.27,1.87,56.13,56.13,0,0,0-4.34,6.91c-.1.18-.18.36-.31.62,1.12,1,2.19,2.14,3.36,3.12,1.68,1.42,3.43,2.76,5.13,4.16a13.44,13.44,0,0,1,1.14,1.19h.17a51.28,51.28,0,0,1,2.09-11.51A24.67,24.67,0,0,1,201.29,66a5.22,5.22,0,0,1,2.41-2.25,2.68,2.68,0,0,1-.11.6c-1.83,3.52-2.49,7.39-3.26,11.22a23.69,23.69,0,0,0-.48,5.79c0,.29.06.57.09.86l.22-.05A31.09,31.09,0,0,1,207.91,75c1.09-.71,2.16-1.46,3.19-2.25a16.92,16.92,0,0,0,4.23-5c.49-.85,1-1.69,1.53-2.53a6.81,6.81,0,0,1,1.86-2,7.7,7.7,0,0,1,.68-.37c0,.22,0,.35,0,.42-1.22,1.9-2.35,3.87-3.68,5.68A29.45,29.45,0,0,1,208,76q-1.6,1-3.16,2.15a13,13,0,0,0-2.94,2.94,14.11,14.11,0,0,0-.93,1.75,6.46,6.46,0,0,1-.61,1,1.17,1.17,0,0,0-.29,1,8.72,8.72,0,0,0,.54,2.71.79.79,0,0,1,0,.57,3,3,0,0,0-.07,1.77,10.68,10.68,0,0,1,.14,1.2,37.43,37.43,0,0,1-.25,9.53c-.23,1.19-.67,2.33-1,3.5-.08.29-.35.55-.09,1a6.64,6.64,0,0,0,2-2c.76-1.33,1.49-2.68,2.15-4.06.49-1,.83-2.1,1.3-3.13a7.13,7.13,0,0,1,2.87-3.05.39.39,0,0,1,.16-.06.89.89,0,0,1,.2,0,1,1,0,0,1,0,.32,37.27,37.27,0,0,1-3.4,7.5,27.65,27.65,0,0,1-6.21,6.51c-.5.4-1,.78-1.51,1.17l-1.41,1.06.1.14,1.35-.67c2-.51,3.91-1.09,5.88-1.52a159.43,159.43,0,0,0,24.25-7.06c1-.38,1.89-.87,2.85-1.28a.92.92,0,0,0,.59-.94A6.67,6.67,0,0,0,230,95a64.45,64.45,0,0,1-2.81-7.76,18.44,18.44,0,0,1-.65-7.74,10.67,10.67,0,0,1,1.8-4.57,14.41,14.41,0,0,1,3.55-3.67c.2-.15.44-.26.83-.5-.1.35-.11.56-.21.68-.43.5-.9,1-1.34,1.47a6.12,6.12,0,0,0-.79,1A12,12,0,0,0,229.13,81a34.6,34.6,0,0,0,2.61,9.7c.83,2.08,1.78,4.11,1.21,6.58a6.9,6.9,0,0,0,.66-.3,10.84,10.84,0,0,0,3.55-3.63,26.08,26.08,0,0,0,3.19-8.86,28.18,28.18,0,0,0,.53-6.31,1.63,1.63,0,0,1,.14-.75,5.77,5.77,0,0,1,2.31-2,7.65,7.65,0,0,1,.2,2.13,28.26,28.26,0,0,1-1.41,8.28c-.1.33-.18.66-.3,1.08.21,0,.33,0,.4-.07a44,44,0,0,1,5.6-3.49l2.74-1.68a5.41,5.41,0,0,0,2.15-2.86,33.41,33.41,0,0,0,1.35-5.48c.19-.88.33-1.77.56-2.63A4.59,4.59,0,0,1,257.05,68c.06.18.11.26.1.33-.24,1.66-.47,3.33-.75,5a15,15,0,0,1-6.53,10,59.23,59.23,0,0,1-6,3.57,14.69,14.69,0,0,0-3.09,2.49,2.12,2.12,0,0,0-.37.58,24.59,24.59,0,0,1-9.83,10.16,56.54,56.54,0,0,1-10.45,4.47,168.43,168.43,0,0,1-17.26,4.69q-3.34.76-6.68,1.57a9.23,9.23,0,0,0-3.44,1.62,4.16,4.16,0,0,1-.77.28,3.38,3.38,0,0,0-.8.46q-3.38,2.93-6.74,5.89c-1,.86-2,1.72-2.93,2.6a26.27,26.27,0,0,0-3.72,4.35,85.68,85.68,0,0,0-6.1,9.71c-.52,1-1,2-1.4,3.08-1.35,3.14-2.62,6.32-4,9.43a48.22,48.22,0,0,0-3.4,11.37,51,51,0,0,0-.83,8.81c0,3.3-.06,6.61,0,9.91.11,4.55.29,9.09.5,13.64.16,3.33.41,6.65.65,10,.06.89.25,1.78.38,2.67.1.72.17,1.44.29,2.15s.3,1.17.41,1.77a11.59,11.59,0,0,1,.26,1.87c0,2,0,4.05.07,6.08a10.24,10.24,0,0,0,.25,1.51,33.69,33.69,0,0,1,5.48-.93h1.76A17.15,17.15,0,0,1,181.1,221q1.55,1.26,3.06,2.57a13.5,13.5,0,0,1,4.28,6.71,34.88,34.88,0,0,1,1,4.92,9.44,9.44,0,0,1-.18,2.93,44.55,44.55,0,0,1-2.06,7.34,18.74,18.74,0,0,1-3.62,5.78,27.93,27.93,0,0,1-5.77,5.1,12.29,12.29,0,0,1-4.28,1.85h-2.79c-.91-.16-1.84-.25-2.73-.5-3.84-1.08-7.71-2.1-11.24-4-1.39-.77-2.75-1.6-4.06-2.49a7.16,7.16,0,0,1-2.62-3.39,25.85,25.85,0,0,1-1.76-8.71Zm24.15,16.52,1.24.15a8.7,8.7,0,0,0,5.16-1.18,11.14,11.14,0,0,0,5.22-6.06c.76-2.15,1.36-4.36,1.92-6.57a9.16,9.16,0,0,0,.18-4.39c-.18-.76-.32-1.53-.52-2.28a15.87,15.87,0,0,0-5-8.39c-1-.87-2.05-1.79-3.15-2.6a17.72,17.72,0,0,0-7.86-3.48,5.66,5.66,0,0,0-3,0l-1.08.18a5.8,5.8,0,0,0-2.55.55c-.07,0-.21,0-.32-.06a1.83,1.83,0,0,0-1.61,0,2,2,0,0,0-.34.06,15,15,0,0,0-7.63,5.76,16,16,0,0,0-2.45,8.22,23.22,23.22,0,0,0,1.7,9.59,8.55,8.55,0,0,0,3.4,4.18c.46.3.92.61,1.39.88A49.75,49.75,0,0,0,172.5,255.21Zm26.65-149.94.11-.15s-.08-.05-.12,0a.43.43,0,0,0-.13.09ZM241.88,87.1l-.06-.07s-.05,0-.06.06,0,0,.05.06Z"/><path class="cls-9" d="M169.67,230.59a8.7,8.7,0,0,1,5.86,6.75,3.41,3.41,0,0,1-.31,1.75,18.52,18.52,0,0,1-4.87,6.53,7.36,7.36,0,0,1-3.44,1.76l-.24-.82c-.81-.14-1.66-.23-2.49-.43-2.76-.64-4.1-2.32-4.26-5.17A7.62,7.62,0,0,1,161,236.3c1.61-2.52,3.52-4.72,6.46-5.74Z"/></g></g></g></svg>