
<svg width="201px" height="771px" viewBox="0 0 201 771" version="1.1" xmlns="http://www.w3.org/2000/svg" xmlns:xlink="http://www.w3.org/1999/xlink">
    <g id="Team" stroke="none" stroke-width="1" fill="none" fill-rule="evenodd" stroke-linecap="square">
        <g id="Desktop" transform="translate(-405.000000, -220.000000)" stroke="#7DF5FC" stroke-width="2">
            <g id="network-Group" transform="translate(407.000000, 221.000000)">
                <path d="M0,0.5 L197,1.5" id="Line-A1B1"></path>
                <path d="M0,190 L197,191" id="Line-A2B2"></path>
                <path d="M0,384 L197,385" id="Line-A3B3"></path>
                <path d="M0,573 L197,574" id="Line-A4B4"></path>
                <path d="M0,767 L197,768" id="Line-A5B5"></path>
                <path d="M0,0.5 L197,768" id="Line-A1B5"></path>
                <path d="M0,0.5 L197,189.5" id="Line-A1B2"></path>
                <path d="M0,0.5 L197,384" id="Line-A1B3"></path>
                <path d="M0,0.5 L197,574" id="Line-A1B4"></path>
                <path d="M197,1.5 L0,192.25" id="Line-A2B1"></path>
                <path d="M197,1.5 L0,385" id="Line-A3B1"></path>
                <path d="M197,1.5 L0,571" id="Line-A4B1"></path>
                <path d="M197,193.25 L0,571" id="Line-A4B2"></path>
                <path d="M197,385 L0,571" id="Line-A4B3"></path>
                <path d="M197,385 L0,193.25" id="Line-A2B3"></path>
                <path d="M0,382.125 L197,193.25" id="Line-A3B2"></path>
                <path d="M0,382.125 L197,576.5" id="Line-A3B4"></path>
                <path d="M0,191 L197,768" id="Line-A2B5"></path>
                <path d="M0,191 L197,574.75" id="Line-A2B4"></path>
                <path d="M0,381.5 L197,768" id="Line-A3B5"></path>
                <path d="M0,573 L197,768" id="Line-A4B5"></path>
                <path d="M197,1.5 L0,768" id="Line-A5B1"></path>
                <path d="M197,191 L0,768" id="Line-A5B2"></path>
                <path d="M197,385 L0,768" id="Line-A5B3"></path>
                <path d="M197,576.5 L0,768" id="Line-A5B4"></path>
            </g>
        </g>
    </g>
</svg>