<?xml version="1.0" standalone="no"?>
<!DOCTYPE svg PUBLIC "-//W3C//DTD SVG 20010904//EN"
 "http://www.w3.org/TR/2001/REC-SVG-20010904/DTD/svg10.dtd">
<svg version="1.0" xmlns="http://www.w3.org/2000/svg"
 width="1586.000000pt" height="1586.000000pt" viewBox="0 0 1586.000000 1586.000000"
 preserveAspectRatio="xMidYMid meet">
<metadata>
Created by potrace 1.11, written by Peter Selinger 2001-2013
</metadata>
<g transform="translate(0.000000,1586.000000) scale(0.100000,-0.100000)"
fill="#000000" stroke="none">
<path d="M4168 15808 c-270 -31 -476 -261 -478 -533 -1 -76 2 -95 24 -168 14
-46 13 -48 -7 -61 -19 -12 -480 -278 -577 -333 -19 -11 -123 -71 -230 -133
-308 -178 -680 -393 -1000 -578 -162 -93 -309 -178 -327 -188 -17 -11 -125
-73 -240 -138 -114 -66 -220 -127 -234 -137 -26 -18 -26 -18 -55 12 -82 87
-227 161 -346 178 -471 65 -828 -395 -645 -834 53 -127 173 -251 302 -311 87
-40 114 -46 240 -50 183 -6 335 58 461 194 l31 34 144 -84 c79 -47 400 -232
714 -413 314 -181 707 -408 875 -505 168 -97 429 -248 580 -335 151 -87 276
-159 278 -160 1 -1 -8 -28 -19 -61 -33 -92 -38 -266 -10 -369 57 -208 197
-366 393 -444 40 -16 89 -32 109 -36 l37 -7 0 -1459 c0 -803 -4 -1461 -8
-1464 -4 -3 -26 -7 -49 -10 -115 -15 -266 -99 -360 -201 -237 -259 -231 -650
14 -900 39 -39 93 -85 120 -102 62 -38 165 -78 227 -87 31 -5 47 -12 50 -23 2
-10 4 -667 3 -1461 l0 -1444 -61 -13 c-305 -62 -525 -332 -525 -644 0 -470
479 -786 914 -604 76 32 169 97 224 157 l42 45 128 -75 c70 -41 146 -85 168
-98 22 -12 91 -52 153 -89 62 -36 117 -66 123 -66 5 0 9 -4 9 -10 0 -5 4 -10
9 -10 5 0 85 -44 178 -98 280 -164 787 -459 824 -480 19 -10 129 -74 244 -142
116 -68 226 -132 245 -143 19 -11 114 -66 210 -122 96 -56 220 -128 275 -160
55 -32 103 -59 106 -61 4 -2 27 32 52 75 l44 79 -241 140 c-132 77 -648 377
-1144 666 -497 289 -908 526 -913 526 -5 0 -9 5 -9 10 0 6 -4 10 -9 10 -7 0
-348 195 -359 205 -2 2 1 19 7 38 21 62 23 81 27 193 4 130 -15 216 -72 325
-85 160 -224 267 -439 335 l-30 9 0 1463 0 1463 25 5 c107 23 235 88 310 160
l35 34 1040 -600 c572 -329 1058 -610 1080 -623 22 -14 227 -132 455 -263 228
-130 417 -239 420 -242 5 -3 3 -437 -5 -1447 -2 -264 -7 -851 -10 -1305 l-6
-825 33 56 c18 30 65 110 103 177 39 67 72 122 75 122 5 0 170 -282 182 -311
4 -9 12 -20 18 -24 9 -6 10 172 6 731 -3 407 -9 1110 -12 1564 -3 454 -7 922
-8 1040 -2 178 0 218 12 233 8 9 19 17 23 17 5 0 57 29 116 64 81 47 986 563
1323 754 19 11 256 145 525 299 270 154 614 350 765 436 l275 157 40 -39 c79
-75 181 -131 283 -156 l69 -17 0 -1389 c0 -1143 -2 -1389 -13 -1389 -43 0
-182 -57 -248 -101 -286 -191 -378 -544 -224 -853 16 -32 28 -59 26 -61 -5 -5
-230 -135 -233 -135 -2 0 -36 -19 -77 -43 -40 -24 -98 -57 -128 -74 -30 -17
-329 -187 -665 -378 -335 -191 -628 -358 -650 -370 -22 -13 -236 -134 -475
-270 -239 -136 -448 -255 -465 -265 -16 -9 -44 -25 -61 -35 l-30 -18 40 -73
c23 -40 47 -73 54 -74 7 0 113 57 235 127 320 182 636 362 682 387 22 12 92
52 155 88 63 36 131 74 150 85 19 11 148 84 285 163 138 79 270 154 295 168
76 42 884 502 900 512 8 5 34 19 58 32 24 12 46 26 48 30 3 4 31 -9 62 -30
126 -84 228 -116 377 -117 95 0 148 9 229 39 257 97 428 346 427 621 -2 283
-181 529 -453 619 -42 14 -86 26 -97 26 -19 0 -21 6 -22 58 -2 256 0 2714 2
2717 2 2 18 5 36 8 126 20 270 101 366 208 149 164 204 407 142 622 l-22 78
71 41 c39 22 103 59 141 81 39 22 111 63 160 92 88 52 646 374 715 413 19 11
235 135 480 277 244 141 463 267 485 279 22 13 121 70 220 128 99 58 194 112
211 121 l32 16 70 -68 c115 -113 251 -169 415 -169 113 0 191 19 286 68 203
107 325 314 320 544 -5 234 -129 427 -341 530 -51 25 -99 46 -105 46 -8 0 -10
437 -9 1541 l1 1541 50 20 c116 44 200 103 273 191 153 186 174 471 51 687
-69 120 -219 234 -363 275 -186 54 -425 -3 -564 -135 l-22 -21 -58 34 c-31 19
-622 361 -1312 759 -690 399 -1264 731 -1276 738 -20 12 -20 14 -4 84 81 339
-176 666 -522 666 -154 0 -278 -51 -389 -160 -70 -69 -125 -167 -148 -264 -14
-59 -12 -182 4 -251 l11 -50 -305 -177 c-168 -97 -565 -326 -881 -508 -316
-183 -593 -343 -615 -355 -22 -13 -94 -54 -160 -92 -66 -39 -196 -114 -290
-168 -93 -54 -222 -128 -285 -164 -184 -107 -159 -102 -230 -40 -168 151 -413
195 -627 114 -59 -23 -152 -85 -202 -135 -40 -41 -42 -41 -66 -26 -13 9 -39
24 -57 34 -18 11 -136 79 -263 152 -126 73 -246 142 -265 152 -19 11 -269 155
-555 321 -639 369 -642 370 -685 395 -19 11 -161 93 -315 182 -154 89 -346
200 -426 246 l-145 84 11 69 c21 124 3 245 -52 356 -14 27 -29 52 -32 55 -4 3
-20 22 -36 43 -33 45 -132 118 -196 145 -92 39 -180 52 -281 40z m177 -139
c65 -17 132 -59 184 -114 87 -92 122 -187 115 -312 -10 -191 -157 -352 -351
-384 -199 -33 -401 96 -458 293 -63 221 68 460 285 516 83 21 147 21 225 1z
m7379 6 c106 -15 234 -113 289 -221 134 -265 -52 -583 -349 -599 -249 -13
-445 186 -432 440 10 188 143 340 332 379 34 7 75 11 91 9 17 -1 48 -6 69 -8z
m-6550 -1028 c248 -143 505 -291 571 -330 66 -38 136 -79 155 -90 158 -89
1478 -852 1486 -858 9 -7 8 -20 -3 -51 -35 -101 -37 -274 -4 -360 7 -19 7 -29
-2 -36 -9 -7 -671 -391 -828 -480 -19 -10 -115 -66 -214 -124 -99 -58 -331
-192 -515 -298 -184 -106 -387 -223 -450 -260 -63 -37 -132 -77 -153 -89 -21
-12 -98 -56 -170 -98 -203 -117 -248 -143 -254 -143 -3 0 -32 25 -64 55 -124
114 -267 169 -444 169 -188 0 -326 -56 -461 -186 l-51 -49 -274 159 c-312 180
-1239 716 -1284 742 -99 56 -1031 594 -1034 596 -2 2 4 32 12 66 22 88 18 254
-9 329 l-20 56 85 49 c46 27 105 61 130 76 25 15 64 37 86 49 22 12 65 36 95
54 70 42 212 124 625 362 182 105 620 358 975 563 354 205 650 375 657 377 7
3 28 -9 46 -27 137 -135 371 -181 559 -110 74 27 170 91 211 140 31 38 32 38
61 23 17 -9 233 -133 480 -276z m6179 162 c113 -73 263 -100 402 -72 83 17
200 77 258 133 43 41 56 47 72 31 6 -5 28 -19 50 -31 41 -23 1181 -680 1860
-1073 209 -121 427 -247 485 -280 128 -73 156 -89 198 -113 21 -13 30 -24 26
-34 -62 -152 -76 -303 -39 -426 8 -27 11 -51 7 -55 -4 -3 -119 -70 -257 -149
-304 -175 -906 -523 -1030 -595 -84 -49 -446 -258 -525 -303 -19 -10 -116 -67
-215 -124 -99 -58 -266 -154 -371 -215 l-190 -109 -68 62 c-118 108 -265 166
-426 169 -161 3 -327 -54 -438 -151 l-49 -43 -199 116 c-211 122 -405 234
-889 513 -165 96 -392 227 -504 292 -112 65 -205 118 -206 118 -2 0 -50 28
-107 62 -56 33 -123 72 -148 86 -25 14 -130 75 -235 135 -104 61 -213 124
-241 140 l-51 29 15 42 c24 68 28 230 7 306 -10 36 -18 73 -19 84 -1 17 262
176 704 426 47 27 513 296 1035 598 l950 549 38 -39 c21 -21 66 -57 100 -79z
m-10608 -1238 c210 -58 356 -296 316 -516 -67 -367 -514 -508 -779 -246 -83
83 -133 201 -133 316 1 108 19 174 72 257 109 170 319 246 524 189z m7362 -3
c223 -79 349 -310 299 -547 -3 -13 -19 -52 -35 -87 -97 -207 -347 -312 -562
-236 -232 81 -362 333 -293 565 48 165 214 306 379 324 28 3 51 6 52 7 7 6
123 -14 160 -26z m7218 -13 c71 -9 184 -66 239 -121 261 -257 147 -685 -208
-778 -152 -39 -325 11 -437 126 -187 193 -169 506 37 676 36 30 113 73 131 74
4 0 16 4 26 10 10 5 39 12 65 15 26 3 49 7 50 8 2 2 13 2 25 0 12 -2 45 -6 72
-10z m-7647 -958 c40 -19 96 -41 127 -48 l55 -12 0 -41 c3 -404 0 -3340 -3
-3343 -3 -3 -736 427 -897 526 -29 18 -714 426 -732 436 -10 6 -48 28 -85 51
-100 60 -615 367 -638 380 -53 29 -552 328 -562 336 -7 6 -10 14 -7 19 7 11 6
165 -1 204 -3 17 -15 61 -26 99 -11 37 -19 69 -17 70 2 2 55 32 118 68 63 36
183 105 265 153 83 48 168 98 190 110 22 13 283 163 580 335 297 172 731 422
965 557 234 135 433 251 443 257 16 10 28 2 86 -55 44 -42 93 -79 139 -102z
m932 61 c162 -93 225 -130 485 -280 324 -187 1017 -587 1285 -741 162 -93 307
-178 322 -188 14 -11 29 -19 32 -19 4 0 245 -138 254 -146 2 -1 -7 -31 -21
-66 -30 -77 -49 -164 -49 -232 -1 -66 11 -161 23 -193 5 -14 8 -27 7 -28 -3
-2 -890 -494 -982 -545 -33 -18 -98 -55 -144 -81 -47 -27 -86 -49 -87 -49 -1
0 -49 -26 -106 -58 -57 -32 -167 -93 -244 -136 -77 -42 -147 -81 -155 -86 -48
-28 -1122 -625 -1158 -644 l-29 -15 0 1693 0 1692 26 2 c93 8 246 92 330 184
19 20 37 35 40 34 4 -2 80 -46 171 -98z m6220 10 c77 -73 156 -119 258 -147
81 -22 75 -21 102 -21 20 0 20 -7 20 -1524 0 -1443 -1 -1525 -17 -1530 -10 -3
-35 -7 -56 -10 -206 -31 -406 -210 -468 -421 -29 -95 -30 -241 -3 -351 5 -18
-7 -29 -78 -70 -201 -116 -316 -182 -358 -206 -25 -14 -130 -75 -235 -136
-104 -60 -480 -277 -835 -482 -355 -205 -717 -414 -805 -465 -88 -51 -171 -98
-184 -105 -21 -11 -28 -8 -75 38 -90 87 -189 142 -308 171 l-68 16 0 1451 0
1451 71 23 c258 83 440 340 440 620 0 74 -21 190 -45 250 -6 15 53 52 333 211
25 14 143 82 261 151 118 68 323 187 455 263 132 76 335 193 450 260 116 67
230 133 255 147 25 14 128 74 230 133 102 59 248 143 325 188 102 59 262 152
270 157 0 0 30 -28 65 -62z m-10410 -1183 c101 -25 237 -130 294 -227 171
-293 19 -657 -309 -744 -177 -46 -380 18 -500 159 -32 37 -96 151 -101 181 -2
6 -7 33 -12 59 -31 155 23 322 143 442 126 126 304 173 485 130z m7266 -26
c258 -62 425 -311 382 -574 -27 -171 -175 -342 -338 -391 -48 -15 -56 -16
-129 -21 -184 -13 -358 80 -437 232 -17 33 -43 83 -58 111 -21 40 -28 67 -30
129 -4 99 7 152 49 240 41 85 101 156 172 201 49 32 133 68 178 76 48 10 166
8 211 -3z m-6425 -1125 c244 -147 458 -274 474 -284 17 -10 422 -253 900 -540
479 -288 879 -528 890 -534 41 -23 191 -117 215 -135 21 -17 22 -21 10 -37
-14 -16 -13 -17 4 -11 15 6 17 5 8 -6 -7 -8 -9 -17 -5 -21 11 -10 12 -36 2
-36 -5 0 -9 5 -9 12 0 15 -13 1 -16 -18 -1 -9 4 -13 14 -12 16 3 17 -30 15
-422 -4 -806 -24 -3344 -27 -3347 -1 -1 -91 50 -201 114 -110 63 -218 125
-240 138 -22 12 -80 46 -130 74 -49 29 -108 63 -130 76 -22 12 -186 107 -365
210 -179 103 -341 197 -360 208 -19 11 -136 78 -260 150 -124 71 -241 139
-260 150 -19 11 -136 78 -260 150 -124 72 -254 147 -290 167 -36 20 -129 74
-208 120 -142 82 -143 83 -136 113 13 62 19 174 12 232 -10 78 -55 222 -80
258 -11 15 -16 27 -11 27 4 0 -1 7 -11 15 -13 10 -15 15 -6 15 7 0 11 3 7 6
-3 3 -8 5 -12 4 -4 -1 -35 25 -69 58 -86 83 -170 134 -270 167 -81 26 -86 30
-86 56 0 16 0 625 0 1354 0 729 0 1374 0 1433 l0 108 68 16 c126 30 260 109
333 197 19 22 37 41 40 41 4 0 206 -120 450 -266z m5884 138 c77 -70 191 -124
313 -148 41 -8 75 -14 77 -14 1 0 3 -650 3 -1444 l0 -1445 -32 -6 c-127 -25
-263 -101 -349 -193 -48 -52 -61 -57 -85 -35 -7 7 -20 9 -29 6 -12 -5 -14 -3
-8 7 5 9 4 11 -4 6 -6 -4 -9 -11 -6 -15 2 -5 -6 -7 -20 -6 -24 3 -42 -19 -25
-30 6 -4 10 -1 10 5 0 7 7 9 16 6 9 -4 13 -2 8 5 -4 7 1 7 16 -1 12 -7 20 -8
17 -3 -4 5 0 10 8 10 8 0 12 -4 9 -8 -2 -4 5 -6 16 -4 24 5 27 -10 4 -19 -8
-3 -12 -10 -9 -16 3 -6 -1 -13 -9 -16 -9 -3 -14 -10 -11 -14 3 -5 1 -11 -5
-15 -6 -4 -8 -10 -5 -15 3 -4 -2 -13 -10 -20 -8 -7 -12 -17 -9 -22 4 -6 -5 -2
-20 7 -15 10 -26 13 -26 6 0 -6 6 -11 14 -11 16 0 29 -27 20 -41 -3 -5 -7 -17
-9 -26 -2 -10 -8 -40 -15 -68 -13 -59 -14 -181 -1 -248 8 -44 7 -49 -13 -62
-19 -12 -735 -420 -836 -477 -25 -14 -108 -61 -185 -105 -781 -448 -1848
-1053 -1851 -1051 -1 2 -5 341 -8 753 -4 413 -9 1065 -12 1450 -2 385 -7 896
-9 1135 -3 327 -1 437 8 442 9 6 8 11 -3 18 -8 5 -10 10 -5 10 6 0 11 9 12 20
1 13 -2 18 -10 14 -7 -4 -1 4 12 19 14 15 31 24 43 22 14 -3 18 0 14 11 -3 8
-2 13 3 10 5 -3 14 1 21 9 6 8 44 32 83 53 55 30 777 431 987 549 30 17 177
98 375 208 28 15 106 59 175 98 69 38 150 83 180 100 30 17 165 92 300 167
135 75 270 150 300 167 30 17 161 89 290 162 129 72 240 131 245 131 6 0 24
-13 40 -28z m4183 -1177 c124 -15 274 -128 333 -251 126 -266 -19 -574 -307
-648 -282 -73 -567 153 -565 448 1 87 9 121 47 201 55 114 162 203 290 240 73
21 97 22 202 10z m-10911 -2051 c353 -128 453 -569 187 -829 -198 -194 -502
-194 -698 0 -203 201 -204 505 -1 711 59 60 155 116 219 128 16 3 31 7 33 10
3 3 48 4 101 4 73 -1 111 -7 159 -24z m7342 11 c127 -33 245 -123 309 -235
114 -198 80 -444 -84 -605 -196 -194 -505 -194 -699 0 -192 192 -202 487 -22
691 62 70 182 141 267 157 55 10 178 6 229 -8z m-17 -4076 c128 -27 261 -124
326 -239 114 -198 79 -447 -83 -605 -200 -194 -505 -194 -700 0 -124 124 -173
280 -140 450 53 277 319 452 597 394z m-7409 -143 c97 -13 219 -78 287 -152
185 -204 179 -504 -13 -697 -101 -101 -224 -150 -366 -146 -190 5 -354 112
-436 284 -39 81 -49 123 -49 215 1 92 9 131 48 213 75 162 223 266 406 286 36
4 67 6 70 5 3 -1 27 -5 53 -8z"/>
<path d="M7692 8853 c-6 -3 -9 -10 -5 -16 4 -6 0 -8 -10 -4 -11 4 -17 1 -17
-9 0 -12 4 -13 21 -4 11 7 23 9 26 6 3 -3 -4 -9 -16 -14 -22 -8 -22 -9 -5 -23
16 -12 17 -12 10 1 -4 8 -1 7 7 -3 11 -14 16 -15 20 -5 3 7 4 3 4 -9 -1 -15
-5 -19 -11 -13 -20 20 -26 9 -9 -17 12 -19 14 -24 4 -19 -10 7 -12 5 -6 -3 5
-9 2 -9 -13 0 -15 9 -18 17 -11 25 7 8 6 15 -2 20 -8 5 -9 3 -4 -6 6 -9 4 -11
-5 -5 -9 6 -11 4 -5 -5 6 -9 4 -11 -4 -5 -8 4 -7 -2 3 -17 9 -14 13 -28 9 -31
-3 -4 -1 -7 6 -7 8 0 11 7 6 18 -5 13 -4 14 6 5 10 -10 7 -18 -14 -37 -15 -14
-27 -21 -27 -16 0 6 -5 10 -11 10 -5 0 -8 -4 -4 -9 5 -9 -12 -26 -27 -26 -15
0 -20 -15 -5 -15 24 0 32 4 29 14 -2 5 4 6 13 3 8 -4 15 -1 15 5 0 6 3 8 7 5
3 -4 15 1 26 10 10 10 21 17 23 16 2 -1 11 0 19 4 14 5 14 8 2 22 -7 9 -13 21
-12 26 1 19 16 35 27 29 5 -4 3 5 -7 19 -10 17 -13 27 -6 32 6 3 11 9 11 13
-1 13 -45 39 -58 35z m37 -49 c-6 -8 -15 -11 -21 -8 -5 4 -5 11 1 18 7 9 7 17
-2 26 -6 8 -2 6 10 -4 18 -15 20 -22 12 -32z m-8 -119 c-1 -3 -3 -4 -5 -2 -2
1 -13 -7 -25 -17 -28 -26 -27 -13 2 16 19 20 30 21 28 3z"/>
<path d="M7640 8821 c0 -7 -4 -9 -10 -6 -6 4 -7 -1 -3 -12 6 -15 4 -16 -9 -5
-12 10 -18 9 -28 -3 -7 -8 -17 -12 -23 -8 -6 3 -7 1 -3 -5 4 -7 1 -12 -8 -12
-9 0 -16 -5 -16 -11 0 -5 4 -8 9 -4 6 3 15 -3 21 -12 9 -15 10 -15 4 6 -4 16
-3 21 5 17 6 -4 11 -14 11 -22 0 -8 4 -13 9 -9 6 3 8 14 6 24 -2 10 3 18 10
18 8 0 12 -4 9 -9 -3 -4 3 -5 13 -2 14 5 15 4 4 -4 -8 -6 -16 -21 -18 -34 -2
-16 0 -19 6 -9 6 9 11 10 15 2 4 -6 2 -11 -4 -11 -6 0 -9 -4 -5 -9 3 -5 0 -13
-6 -17 -7 -4 -9 -3 -6 3 3 5 0 10 -8 10 -8 0 -11 -5 -8 -10 4 -6 1 -7 -7 -2
-9 6 -11 4 -5 -5 6 -9 4 -11 -5 -5 -9 6 -11 4 -5 -5 5 -8 4 -11 -1 -7 -14 8
-13 -46 0 -55 6 -4 1 -6 -11 -5 -17 1 -20 5 -12 18 6 12 4 19 -6 23 -8 3 -17
1 -20 -4 -4 -6 -2 -10 4 -10 5 0 9 -9 8 -20 -1 -11 -5 -20 -10 -20 -5 0 -6 8
-3 18 4 10 -4 6 -19 -11 -14 -16 -23 -32 -21 -36 3 -4 -1 -8 -9 -8 -8 0 -12 4
-10 8 3 3 -2 12 -10 19 -11 9 -14 8 -12 -7 1 -21 27 -52 27 -33 0 6 5 8 11 4
6 -3 15 -1 19 7 5 7 15 13 22 15 7 1 28 11 46 22 27 16 30 21 16 26 -13 5 -14
9 -4 21 6 8 17 13 23 12 6 -1 11 5 12 13 0 8 9 15 20 15 23 0 26 21 8 51 -11
18 -11 23 5 37 10 10 23 14 28 10 5 -5 -2 6 -16 22 -14 17 -26 32 -27 34 -2 2
-3 -1 -3 -8z m25 -42 c-3 -4 -13 -5 -22 -2 -11 4 -13 8 -5 11 7 2 9 9 5 15 -4
7 1 6 10 -2 9 -7 14 -17 12 -22z m-50 11 c4 -6 1 -9 -7 -8 -7 2 -12 -3 -10
-10 1 -8 -2 -11 -8 -7 -8 5 -7 11 1 21 14 17 16 17 24 4z m2 -125 c0 -8 -3
-13 -5 -10 -3 3 -12 -1 -21 -7 -10 -8 -9 -4 3 10 23 26 23 26 23 7z m-81 -87
c4 -7 4 -10 -1 -6 -4 4 -14 3 -22 -4 -11 -8 -12 -7 -7 6 7 19 20 21 30 4z"/>
<path d="M7495 8740 c-10 -11 -21 -17 -26 -15 -14 9 -22 -16 -9 -28 10 -10 12
-8 6 8 -5 18 -5 18 7 3 12 -15 14 -15 25 3 7 10 18 18 25 16 15 -3 16 25 1 30
-6 2 -19 -6 -29 -17z m34 7 c-2 -1 -15 -11 -29 -22 l-25 -20 19 23 c11 12 24
22 29 22 6 0 8 -1 6 -3z"/>
<path d="M7542 8729 c-7 -11 -17 -17 -22 -14 -5 3 -14 -3 -19 -14 -12 -21 -31
-22 -55 -2 -11 10 -16 10 -16 2 0 -7 -5 -9 -11 -5 -6 3 -3 -8 6 -26 12 -23 13
-30 3 -25 -10 6 -11 5 -1 -5 18 -19 27 -6 14 19 -8 13 -8 22 -1 26 6 4 10 3 9
-2 -5 -28 2 -36 16 -17 13 18 14 18 8 -6 -3 -15 -2 -22 3 -17 5 5 9 13 9 18 0
5 5 8 10 7 6 -2 9 -6 8 -10 -2 -4 5 -5 15 -2 13 5 14 4 3 -4 -7 -5 -10 -15 -7
-21 5 -7 2 -10 -6 -9 -7 2 -12 -3 -10 -10 1 -8 -2 -11 -8 -7 -6 3 -8 10 -5 15
3 4 -2 10 -9 13 -10 4 -13 0 -11 -13 4 -19 3 -19 -23 -2 -21 13 -24 14 -18 2
7 -12 6 -13 -5 -2 -7 6 -18 12 -23 12 -6 0 -3 -5 7 -11 9 -6 14 -15 11 -21 -4
-6 -3 -8 3 -5 6 4 10 -1 9 -10 0 -9 6 -18 14 -21 12 -4 13 -3 2 10 -10 13 -10
17 2 21 8 3 20 -1 26 -8 10 -13 16 -11 34 12 11 15 22 31 22 35 1 5 3 11 4 16
1 4 2 10 1 15 0 4 4 7 9 7 6 0 10 -4 10 -10 0 -5 5 -10 12 -10 6 0 8 3 5 7 -8
8 33 54 42 48 4 -2 7 5 7 15 0 11 -4 16 -11 11 -15 -11 -35 -8 -43 6 -6 9 -11
7 -20 -8z m43 -11 c5 4 2 -4 -6 -17 -15 -24 -64 -38 -74 -20 -4 5 2 6 12 2 16
-6 17 -5 3 12 -8 10 -10 16 -4 12 7 -4 17 0 24 8 9 11 16 12 25 5 6 -5 16 -6
20 -2z"/>
<path d="M7541 8707 c-9 -12 -8 -16 3 -20 19 -7 32 11 19 24 -6 6 -14 5 -22
-4z"/>
<path d="M7369 8667 c-13 -12 -24 -20 -24 -18 -1 12 -75 -36 -75 -48 0 -14 -1
-14 -10 -1 -6 10 -10 11 -10 3 0 -7 -7 -13 -15 -13 -8 0 -15 -5 -15 -11 0 -5
-5 -7 -12 -3 -7 5 -8 3 -3 -6 5 -8 3 -11 -6 -8 -15 6 -69 -21 -69 -35 0 -4 -4
-5 -10 -2 -5 3 -10 1 -10 -5 0 -6 -5 -8 -12 -4 -7 5 -8 3 -4 -5 6 -8 2 -11
-10 -9 -12 2 -18 -2 -16 -11 2 -8 -3 -11 -12 -8 -16 6 -40 -16 -29 -26 3 -4 1
-7 -5 -7 -5 0 -13 6 -15 13 -4 10 -6 10 -6 0 -1 -7 -7 -13 -14 -13 -8 0 -24
-9 -37 -20 -13 -11 -29 -20 -37 -20 -7 0 -13 -5 -13 -12 0 -6 -3 -8 -6 -5 -4
3 -18 -3 -32 -13 -13 -11 -31 -20 -38 -20 -8 0 -14 -5 -14 -11 0 -5 -4 -8 -8
-5 -5 3 -19 -4 -30 -15 -12 -11 -22 -16 -22 -12 0 4 -7 0 -14 -10 -8 -10 -18
-19 -23 -20 -4 -1 -7 -6 -5 -10 1 -5 -7 -6 -18 -2 -16 5 -19 3 -13 -12 6 -15
4 -16 -8 -6 -13 10 -20 9 -37 -8 -12 -11 -22 -16 -22 -12 0 4 -7 0 -15 -11 -8
-10 -19 -15 -26 -10 -8 5 -10 3 -4 -6 6 -9 4 -12 -6 -8 -17 7 -56 -18 -45 -29
4 -4 11 -1 16 7 9 13 10 13 10 0 0 -13 2 -13 11 0 9 13 10 13 6 -2 -3 -9 1
-19 9 -22 24 -9 27 -7 14 9 -13 16 -8 28 14 31 7 1 12 -7 11 -20 -1 -11 2 -29
7 -40 8 -14 7 -17 -3 -11 -8 6 -10 4 -4 -5 5 -8 4 -11 -3 -6 -6 4 -9 14 -6 24
5 14 4 14 -4 3 -7 -10 -7 -20 1 -32 7 -12 14 -14 18 -7 4 7 8 6 11 -3 3 -9 6
-8 11 5 4 9 3 15 -3 11 -5 -3 -7 4 -5 15 2 11 -1 20 -8 20 -8 0 -8 3 1 12 7 7
12 17 12 23 0 5 -5 3 -10 -5 -7 -12 -9 -10 -7 8 0 12 5 22 9 22 4 0 7 6 5 13
-1 7 7 12 20 11 13 -1 20 3 17 8 -3 4 -2 8 3 7 4 -1 11 0 16 1 4 1 13 3 20 4
6 1 12 8 11 17 -1 9 4 16 11 16 7 0 11 -6 8 -13 -2 -6 1 -15 8 -20 9 -5 10 -2
6 9 -3 9 0 20 8 24 12 7 15 12 15 29 0 4 8 0 17 -7 14 -12 16 -12 9 1 -4 8 0
6 10 -5 14 -17 16 -18 10 -2 -4 13 -2 16 7 11 9 -6 9 -4 -1 8 -14 18 -6 27 21
23 10 -2 15 1 11 8 -3 7 1 4 9 -6 12 -14 16 -15 26 -4 6 8 8 17 4 20 -3 4 -1
7 4 7 6 0 13 -5 15 -12 3 -9 6 -9 12 0 4 7 2 12 -4 12 -6 0 -8 5 -4 12 5 7 3
8 -6 3 -9 -6 -11 -4 -5 5 6 10 11 9 21 -4 9 -13 13 -14 17 -4 4 10 6 10 6 1 1
-7 5 -13 10 -13 6 0 8 9 6 20 -2 11 0 20 6 20 5 0 9 5 9 11 0 5 -6 7 -12 3 -8
-4 -10 -3 -5 2 5 5 12 9 15 9 4 0 14 4 22 9 12 7 13 6 3 -5 -23 -24 -14 -33
10 -11 13 12 27 19 31 15 4 -5 7 -3 6 2 -5 22 1 27 17 14 15 -12 16 -12 11 3
-8 21 2 31 17 18 9 -8 14 -6 19 5 4 11 2 14 -6 9 -7 -4 -8 -3 -4 4 11 18 29
14 22 -4 -4 -10 -2 -13 7 -9 6 4 3 -1 -8 -11 -17 -14 -18 -16 -2 -10 12 4 16
2 11 -6 -4 -7 -3 -8 5 -4 6 4 9 12 6 17 -3 5 0 6 8 3 11 -4 15 2 13 19 0 14
-4 23 -8 21 -4 -2 -10 1 -14 8 -4 7 -4 10 1 6 11 -10 47 11 40 22 -3 6 1 7 10
4 14 -6 14 -8 -2 -20 -17 -13 -17 -14 0 -8 10 4 17 1 17 -6 0 -6 5 -8 10 -5 7
4 6 13 -1 27 -8 15 -8 19 0 13 6 -3 11 -3 10 2 -4 21 3 23 23 9 12 -9 27 -16
33 -16 5 0 3 5 -5 10 -13 9 -13 10 0 10 13 0 13 1 0 10 -11 7 -11 10 -2 10 7
0 11 4 7 9 -10 16 30 32 45 18 10 -10 12 -9 7 4 -3 9 0 16 8 16 7 0 11 -6 8
-14 -3 -7 1 -13 8 -13 9 0 10 -3 4 -8 -14 -10 -17 -32 -5 -32 6 0 10 6 10 14
0 8 5 18 10 21 21 13 9 -17 -17 -42 -16 -15 -22 -23 -14 -18 11 6 10 2 -2 -16
-9 -13 -17 -28 -17 -34 1 -5 7 1 15 15 7 14 16 24 19 23 3 -2 7 -3 9 -2 13 4
77 6 74 2 -5 -4 -29 -10 -50 -12 -5 -1 -6 -5 -2 -10 3 -5 0 -13 -6 -17 -8 -5
-9 -3 -4 6 6 9 4 11 -5 5 -9 -5 -11 -4 -6 3 5 8 2 10 -8 6 -19 -7 -20 -16 -5
-31 9 -9 8 -11 -2 -10 -27 5 -40 19 -34 38 4 10 2 19 -3 19 -5 0 -9 -7 -10
-15 -1 -8 -3 -22 -4 -30 -1 -8 -5 -15 -10 -15 -5 0 -6 -5 -2 -11 4 -8 9 -7 16
2 8 11 9 11 5 -1 -2 -8 -16 -16 -33 -16 -40 -2 -41 -3 -25 -13 9 -6 10 -11 2
-15 -10 -6 -15 6 -12 27 0 4 -3 7 -9 7 -5 0 -9 -10 -7 -22 2 -19 -2 -23 -23
-20 -19 2 -22 0 -10 -8 10 -6 11 -10 3 -10 -7 0 -13 -5 -13 -10 0 -11 40 8 52
25 4 6 8 6 8 1 0 -5 8 -2 18 6 9 9 27 19 40 22 12 4 22 13 22 21 0 8 7 11 18
9 9 -3 29 7 45 21 15 14 32 23 39 19 7 -5 8 -3 3 6 -6 10 -4 12 7 7 24 -9 16
14 -15 46 -16 15 -26 31 -23 36 3 5 -1 12 -10 15 -8 3 -12 11 -9 17 4 6 12 8
19 6 16 -6 18 29 2 42 -9 8 -19 5 -37 -12z m41 -10 c0 -7 -4 -6 -10 3 -5 8
-10 12 -11 8 -2 -11 -6 -26 -9 -35 -1 -5 -2 -12 -1 -16 1 -5 -3 -6 -8 -3 -12
8 -9 30 8 50 14 17 31 13 31 -7z m-145 -77 c3 -5 1 -10 -4 -10 -6 0 -11 5 -11
10 0 6 2 10 4 10 3 0 8 -4 11 -10z m148 -16 c17 -21 17 -21 -5 -20 -13 1 -29
-3 -37 -8 -10 -8 -9 0 4 21 10 18 19 31 20 30 0 -1 8 -12 18 -23z m-263 -64
c6 -11 8 -20 6 -20 -3 0 -10 9 -16 20 -6 11 -8 20 -6 20 3 0 10 -9 16 -20z
m-193 -93 c0 -8 -6 -14 -14 -14 -17 0 -17 14 0 20 6 3 12 6 13 6 0 1 1 -5 1
-12z m-77 -37 c-13 -8 -13 -10 -1 -10 8 0 12 -3 8 -6 -3 -3 -11 -3 -17 1 -8 5
-8 11 1 21 6 8 14 12 18 9 3 -3 -1 -10 -9 -15z m-76 -38 c3 -5 -1 -9 -9 -9 -8
0 -12 4 -9 9 3 4 7 8 9 8 2 0 6 -4 9 -8z m-203 -125 c-10 -9 -11 -8 -5 6 3 10
9 15 12 12 3 -3 0 -11 -7 -18z"/>
<path d="M7390 8560 c0 -5 5 -10 11 -10 5 0 7 5 4 10 -3 6 -8 10 -11 10 -2 0
-4 -4 -4 -10z"/>
<path d="M7300 8610 c-13 -9 -13 -10 0 -11 8 -1 19 -1 23 0 5 1 5 -4 1 -10 -5
-8 -3 -9 6 -4 9 6 11 4 5 -4 -5 -9 -10 -10 -18 -2 -17 17 -26 13 -22 -9 5 -27
-12 -35 -39 -17 -22 15 -23 14 -23 -6 0 -12 -3 -30 -8 -40 -6 -15 -9 -16 -19
-2 -7 10 -16 12 -26 5 -8 -5 -11 -12 -7 -17 5 -4 13 -1 18 7 9 12 10 12 7 1
-2 -8 -18 -25 -35 -38 l-30 -23 -29 22 c-15 13 -25 17 -20 10 12 -19 -3 -35
-20 -21 -9 7 -14 8 -12 3 2 -5 -1 -10 -7 -12 -5 -2 -19 -12 -31 -23 -11 -10
-24 -16 -29 -12 -4 5 -5 2 -1 -4 4 -7 2 -13 -3 -13 -6 0 -10 -6 -8 -12 1 -7
-5 -13 -14 -13 -9 0 -24 -6 -33 -14 -9 -7 -16 -10 -16 -6 0 5 -8 1 -18 -8 -10
-10 -21 -15 -24 -12 -3 3 -16 8 -28 10 -18 3 -21 2 -12 -7 8 -8 8 -17 1 -30
-10 -18 -12 -18 -35 -3 -13 8 -24 12 -23 8 3 -20 -2 -34 -11 -28 -5 3 -7 0 -4
-8 6 -18 -12 -32 -21 -17 -4 6 -12 7 -18 3 -7 -4 -16 -8 -21 -8 -5 0 -16 -11
-25 -25 -11 -16 -12 -21 -3 -16 11 7 11 4 1 -13 -10 -14 -15 -17 -21 -8 -4 6
-3 16 2 21 14 14 12 23 -3 23 -8 0 -13 -14 -13 -39 -1 -40 4 -46 24 -26 9 9
12 9 12 -2 0 -10 4 -9 18 3 10 10 22 14 25 10 4 -3 7 -1 7 6 0 7 -6 11 -13 8
-8 -3 -14 1 -14 9 0 8 4 15 9 15 19 3 24 5 36 12 7 5 12 3 12 -5 0 -10 2 -10
8 -1 6 9 11 6 21 -8 7 -12 9 -19 4 -16 -5 3 -9 -6 -9 -21 1 -16 -4 -26 -11
-24 -7 1 -13 -2 -13 -8 0 -6 -4 -9 -9 -8 -5 2 -17 -6 -25 -17 -11 -13 -14 -14
-11 -4 3 9 -1 22 -10 29 -9 8 -15 8 -15 2 0 -6 4 -13 10 -17 5 -3 7 -12 3 -20
-7 -20 7 -18 37 5 14 11 30 20 37 20 7 0 16 8 22 18 5 9 12 16 16 14 9 -5 115
50 115 60 0 5 4 7 8 4 5 -3 18 2 28 12 11 9 26 18 34 20 8 2 18 9 22 15 4 7 8
8 8 4 0 -5 15 2 33 15 17 13 34 23 37 24 3 0 22 9 42 19 34 17 50 39 53 70 0
6 11 9 23 8 23 -3 30 11 11 23 -19 11 13 24 46 18 20 -3 25 -1 16 5 -8 5 -24
8 -36 7 -12 -2 -22 3 -22 10 0 9 5 10 18 3 11 -6 20 -5 24 1 3 5 1 10 -5 10
-7 0 -10 7 -7 15 4 8 2 17 -3 20 -6 4 -10 11 -10 18 0 6 7 2 16 -9 8 -10 12
-13 9 -6 -6 11 -3 12 14 3 24 -13 29 -23 7 -15 -17 6 -31 -12 -16 -21 5 -3 10
-1 10 6 0 7 3 9 6 6 4 -4 1 -13 -6 -22 -8 -9 -8 -15 -2 -15 10 0 25 31 27 55
0 6 8 9 17 9 10 -1 17 1 16 5 0 3 1 8 2 11 5 11 7 60 2 55 -3 -3 -10 -1 -16 5
-7 5 -17 5 -26 0z m40 -46 c0 -1 -12 -10 -27 -20 -20 -13 -25 -13 -16 -2 7 8
11 17 8 19 -2 3 5 5 15 5 11 0 20 -1 20 -2z m-97 -59 c-3 -9 -8 -14 -10 -11
-3 3 -2 9 2 15 9 16 15 13 8 -4z m-30 -40 c-3 -8 -10 -15 -16 -15 -6 0 -2 -7
9 -15 14 -11 15 -14 3 -9 -11 3 -23 -3 -32 -16 -9 -12 -20 -19 -26 -16 -7 4
-8 1 -5 -8 3 -9 11 -13 18 -10 6 3 0 -4 -13 -15 -12 -12 -27 -19 -31 -16 -4 3
-11 -2 -14 -11 -3 -8 -10 -13 -15 -10 -5 3 -14 0 -20 -8 -7 -8 -21 -12 -31 -9
-12 3 -20 0 -20 -6 0 -7 6 -9 13 -5 6 4 10 5 7 1 -3 -3 -8 -5 -11 -4 -4 1 -16
-7 -28 -17 -12 -11 -21 -15 -21 -11 0 5 -11 -2 -25 -15 -14 -13 -25 -20 -25
-15 0 5 -11 -1 -23 -14 -15 -13 -30 -19 -41 -15 -11 4 -16 2 -14 -7 2 -8 -4
-14 -12 -14 -8 0 -18 -4 -22 -9 -3 -5 -14 -11 -22 -12 -12 -2 -14 2 -7 14 11
19 -15 65 -31 56 -6 -4 -3 5 7 19 10 16 23 24 36 22 21 -4 52 32 42 48 -3 6
-2 7 4 4 6 -4 9 -18 8 -32 -4 -29 6 -32 32 -7 10 9 13 13 6 8 -22 -14 -28 2
-9 23 10 11 24 17 32 14 8 -3 14 0 14 6 0 7 7 11 15 9 8 -2 33 17 56 42 22 25
38 39 34 33 -4 -8 0 -13 9 -13 9 0 15 6 14 13 -2 6 3 11 11 9 8 -2 17 2 21 9
5 8 13 8 27 1 16 -9 26 -6 54 17 35 30 53 32 42 6z m-478 -235 c-3 -4 -13 -7
-23 -6 -9 2 -21 -2 -25 -8 -6 -7 -7 -6 -4 4 2 8 9 15 15 15 5 0 14 3 18 7 9
10 26 -1 19 -12z m-48 -45 c0 -8 -4 -15 -9 -15 -10 0 -11 14 -1 23 9 10 10 9
10 -8z"/>
<path d="M7181 8454 c-12 -15 -21 -23 -21 -18 0 4 -5 3 -12 -4 -8 -8 -17 -8
-30 -1 -14 7 -20 6 -24 -6 -5 -12 -10 -13 -20 -4 -10 8 -12 6 -9 -10 4 -24 1
-25 -25 -11 -16 8 -23 3 -47 -30 -15 -22 -33 -38 -40 -35 -7 2 -15 0 -19 -6
-3 -6 -12 -8 -19 -5 -8 3 -19 -3 -27 -12 -11 -15 -11 -15 2 -5 9 6 21 9 27 5
7 -4 -4 -18 -28 -35 -37 -27 -44 -25 -40 8 1 6 -8 -1 -19 -14 -12 -14 -20 -18
-20 -10 0 11 -2 11 -10 -1 -9 -13 -10 -13 -10 0 0 13 -2 13 -9 1 -7 -10 -4
-23 8 -40 10 -15 16 -33 14 -41 -3 -10 -1 -10 7 2 6 9 16 16 23 14 6 -1 8 -1
4 2 -4 2 0 10 10 17 13 10 20 10 25 2 5 -8 15 -4 32 13 15 13 26 20 26 15 0
-5 9 1 21 13 11 12 24 20 29 17 11 -7 41 35 34 47 -7 11 3 10 26 -2 15 -8 22
-5 34 12 11 15 16 18 16 8 1 -11 3 -11 11 3 6 9 15 14 21 11 7 -5 8 -2 3 6 -6
10 -4 12 8 7 14 -5 15 -3 5 17 -10 23 -29 28 -44 13 -7 -7 12 -11 31 -7 6 1 6
-2 2 -6 -27 -27 -54 0 -31 31 9 12 14 14 14 5 0 -7 3 -10 6 -7 4 3 14 2 24 -3
13 -7 22 -4 35 10 10 11 14 20 10 20 -4 0 0 9 10 20 10 11 15 20 12 20 -3 0
-15 -12 -26 -26z m-123 -77 c7 -5 12 -3 12 5 0 8 5 6 11 -5 6 -9 15 -14 21
-11 7 4 8 2 4 -5 -4 -6 -12 -9 -17 -6 -5 4 -12 -1 -15 -9 -6 -16 -29 -17 -51
-3 -12 7 -18 -3 -14 -25 0 -5 -3 -8 -9 -8 -5 0 -10 5 -10 11 0 5 -4 8 -10 4
-5 -3 -7 -12 -4 -20 4 -8 11 -12 17 -8 5 3 7 1 4 -4 -4 -6 -20 -9 -37 -8 -27
2 -30 0 -25 -19 2 -11 2 -15 -1 -8 -4 8 -12 4 -26 -14 -14 -17 -24 -22 -31
-15 -7 7 -19 4 -39 -10 -26 -19 -29 -19 -27 -3 0 3 -7 11 -17 18 -15 11 -15
13 0 13 9 0 16 -3 16 -7 0 -3 10 -6 21 -7 17 -2 19 1 10 10 -6 6 -11 16 -11
22 0 5 5 2 11 -8 8 -14 14 -16 25 -6 8 6 14 9 14 6 0 -10 55 48 55 58 0 6 8 9
16 7 9 -1 27 13 40 32 23 34 40 39 67 23z"/>
<path d="M7006 8361 c-9 -10 -16 -22 -16 -27 0 -5 5 -1 11 9 6 10 15 14 22 10
21 -13 36 -12 48 4 7 8 8 13 3 12 -5 -1 -11 0 -14 1 -23 8 -41 5 -54 -9z m50
-3 c3 -4 -1 -5 -10 -4 -8 1 -18 5 -22 8 -3 4 1 5 10 4 8 -1 18 -5 22 -8z"/>
<path d="M6943 8306 c0 -7 6 -13 14 -13 7 0 13 4 13 8 0 4 -6 9 -13 12 -8 3
-14 0 -14 -7z"/>
<path d="M6900 8260 c-6 -11 -16 -17 -22 -14 -7 4 -8 3 -4 -5 4 -6 12 -9 17
-6 11 7 32 45 25 45 -3 0 -10 -9 -16 -20z"/>
<path d="M6722 8193 c11 -13 5 -27 -13 -29 -5 -1 -12 -2 -15 -3 -4 0 -1 -8 6
-16 10 -12 15 -12 34 0 13 8 25 13 27 10 3 -2 5 8 5 23 0 24 -4 28 -28 28 -22
0 -25 -2 -16 -13z m32 -23 c-6 -6 -10 -3 -10 10 0 13 4 16 10 10 7 -7 7 -13 0
-20z m-24 -16 c0 -8 -19 -13 -24 -6 -3 5 1 9 9 9 8 0 15 -2 15 -3z"/>
<path d="M6580 8181 c0 -6 4 -13 10 -16 6 -3 7 1 4 9 -7 18 -14 21 -14 7z"/>
<path d="M6498 8163 c8 -14 9 -24 2 -28 -5 -3 -10 -11 -10 -17 0 -7 4 -7 13 1
8 6 18 7 22 3 5 -4 5 1 2 10 -3 10 -1 20 5 24 6 4 8 3 4 -4 -3 -6 -1 -14 5
-17 5 -4 8 -14 5 -22 -3 -8 -2 -11 4 -8 5 3 7 -4 5 -15 -2 -11 2 -20 8 -20 7
0 6 -4 -3 -11 -13 -10 -13 -10 1 -6 9 3 16 -1 16 -8 0 -7 -6 -11 -14 -8 -7 3
-16 -3 -19 -12 -6 -13 -9 -14 -16 -3 -7 10 -8 9 -4 -4 3 -10 1 -18 -4 -18 -6
0 -10 8 -10 17 0 9 -3 13 -7 9 -5 -4 -8 -13 -8 -19 0 -7 -6 -12 -14 -12 -19 0
-25 -21 -10 -31 8 -5 9 -3 4 6 -6 10 -4 12 9 7 10 -4 15 -3 11 3 -3 6 3 10 14
10 11 0 26 6 33 13 7 6 20 13 28 15 8 2 27 18 43 35 16 18 26 25 24 17 -2 -8
-2 -12 0 -7 3 4 9 5 13 2 5 -3 7 7 4 22 l-4 28 14 -24 13 -24 5 25 c6 32 -14
60 -37 52 -12 -5 -13 -9 -5 -14 9 -6 9 -13 1 -29 -7 -12 -16 -19 -22 -16 -5 4
-9 1 -9 -4 0 -6 -5 -11 -12 -11 -6 0 -8 3 -5 6 3 4 1 16 -5 28 -7 11 -12 24
-13 28 0 12 -42 38 -48 31 -4 -3 -14 0 -23 8 -16 13 -16 12 -6 -8z m67 -31
c-3 -3 -11 0 -18 7 -9 10 -8 11 6 5 10 -3 15 -9 12 -12z m106 -9 c13 -16 12
-17 -3 -4 -10 7 -18 15 -18 17 0 8 8 3 21 -13z m-96 -24 c-4 -5 -1 -9 5 -9 6
0 9 -4 5 -9 -3 -6 2 -14 11 -19 15 -8 14 -10 -2 -16 -10 -4 -15 -4 -11 0 4 4
2 13 -3 20 -14 16 -22 56 -9 49 5 -4 7 -11 4 -16z"/>
<path d="M6449 8152 c-1 -4 -1 -11 0 -15 1 -5 -4 -7 -11 -4 -7 2 -24 -4 -37
-14 -13 -10 -27 -17 -31 -14 -12 8 -40 -29 -31 -43 5 -9 12 -9 27 3 16 13 16
14 2 9 -10 -3 -18 -2 -18 4 0 11 39 10 58 -2 6 -3 13 -2 17 4 6 10 -9 15 -30
10 -5 -1 -6 2 -2 6 12 12 37 14 37 3 0 -6 4 -8 9 -5 5 3 14 -1 21 -9 10 -12
10 -15 -1 -15 -9 -1 -7 -7 7 -18 17 -15 19 -20 7 -30 -10 -10 -13 -10 -13 0 0
9 -3 9 -11 -2 -9 -13 -10 -13 -6 2 6 18 -19 33 -28 18 -4 -6 -2 -10 4 -10 5 0
9 -9 8 -20 -1 -11 -5 -20 -9 -20 -4 0 -5 -9 -3 -19 4 -20 -9 -22 -34 -7 -11 7
-12 6 -6 -5 8 -12 6 -12 -8 0 -13 10 -17 10 -17 1 0 -10 -3 -10 -15 0 -13 11
-18 11 -28 0 -10 -10 -9 -11 2 -5 9 5 19 1 28 -10 7 -11 13 -13 13 -7 0 7 5
12 12 12 9 0 9 -3 0 -12 -7 -7 -16 -13 -20 -13 -4 -1 -18 -7 -31 -14 -13 -7
-21 -8 -17 -2 5 7 1 9 -8 5 -9 -3 -16 -1 -16 6 0 6 -4 9 -10 5 -17 -10 1 -33
24 -31 14 2 23 -3 23 -11 0 -8 -6 -12 -12 -9 -7 2 -18 -1 -24 -7 -6 -6 -11 -7
-11 -3 0 5 -7 3 -15 -4 -10 -9 -15 -9 -15 -1 0 6 5 11 12 11 6 0 8 3 4 7 -4 5
-14 -1 -22 -11 -8 -11 -14 -14 -14 -7 0 7 -5 9 -11 5 -8 -5 -8 -9 1 -14 9 -5
9 -9 1 -14 -10 -6 -15 6 -12 27 0 4 -3 7 -9 7 -5 0 -7 -13 -5 -30 5 -39 -19
-54 -52 -33 -13 8 -23 12 -23 8 0 -5 -10 0 -22 11 l-23 19 19 -22 c10 -13 22
-20 26 -18 4 3 11 -2 14 -11 4 -10 2 -13 -7 -8 -8 5 -7 2 2 -9 18 -23 24 -21
18 4 -4 16 -3 18 8 9 15 -13 55 3 55 21 0 6 4 8 9 4 5 -3 12 -1 16 5 4 6 11 7
17 4 7 -4 8 -2 4 4 -6 11 6 16 27 13 4 0 7 4 7 10 0 5 4 8 9 5 12 -8 63 33 56
45 -4 5 -1 9 4 9 6 0 11 -6 11 -12 0 -10 2 -10 9 0 4 8 10 12 12 11 2 -2 23 8
47 21 28 16 41 29 37 38 -7 18 14 44 28 35 5 -3 7 -1 3 5 -3 6 -2 13 3 17 6 3
8 13 5 23 -5 15 -4 15 8 2 21 -24 42 -18 43 13 1 15 -2 27 -8 27 -5 0 -7 6 -4
14 8 20 -23 14 -35 -7 -5 -9 -14 -17 -21 -17 -8 0 -7 3 2 9 7 5 10 14 6 20 -4
7 -1 18 5 26 7 8 11 15 9 16 -38 7 -49 8 -50 1z m30 -18 c-5 -7 -9 -16 -8 -20
4 -21 -3 -23 -24 -9 -13 8 -27 12 -32 8 -4 -5 -5 -2 -1 5 4 7 11 10 16 7 4 -3
16 -2 25 1 13 5 14 9 3 15 -9 6 -6 8 9 6 16 -1 19 -5 12 -13z m38 -38 c-3 -8
-1 -16 5 -18 6 -2 12 -12 14 -22 2 -16 0 -16 -20 -2 -17 11 -26 12 -35 3 -21
-21 -11 2 12 27 26 28 31 31 24 12z m-68 -102 c-6 -7 -8 -17 -5 -22 3 -6 -1
-15 -9 -22 -12 -10 -13 -8 -9 12 3 12 6 28 6 34 1 6 7 11 15 11 9 0 10 -4 2
-13z m-39 -55 c0 -7 -25 -20 -48 -25 -10 -2 -9 2 2 15 16 18 46 24 46 10z
m-180 -93 c0 -2 -8 -10 -17 -17 -16 -13 -17 -12 -4 4 13 16 21 21 21 13z"/>
<path d="M6507 8069 c7 -7 15 -10 18 -7 3 3 -2 9 -12 12 -14 6 -15 5 -6 -5z"/>
<path d="M6431 8076 c-7 -8 -19 -12 -26 -10 -7 3 -25 -2 -38 -11 -24 -15 -26
-15 -35 2 -6 10 -14 14 -19 9 -4 -5 -2 -11 5 -13 10 -4 8 -9 -5 -18 -15 -11
-16 -16 -5 -27 11 -11 12 -10 7 5 -5 10 -2 17 6 17 7 0 9 -3 6 -6 -3 -4 -2
-15 4 -26 10 -18 9 -19 -13 -7 -13 7 -26 12 -30 11 -4 -1 -5 5 -2 13 4 9 0 15
-7 15 -11 0 -11 2 1 9 8 6 19 7 25 4 5 -3 4 0 -2 7 -10 11 -16 11 -31 -3 -10
-9 -22 -14 -25 -11 -4 4 -9 -1 -13 -10 -3 -9 -9 -14 -14 -11 -4 2 -18 -6 -31
-18 -13 -12 -25 -21 -26 -19 -9 7 -103 -50 -97 -59 4 -7 -1 -9 -14 -5 -13 4
-22 1 -26 -9 -3 -9 -10 -13 -16 -10 -5 3 -7 0 -4 -8 3 -8 13 -14 22 -12 9 2
19 4 22 4 3 1 -1 5 -9 10 -9 6 -10 11 -2 15 6 4 11 3 11 -2 0 -4 14 -8 30 -8
17 0 30 4 30 8 0 5 -10 7 -22 3 -20 -5 -21 -4 -5 5 9 6 21 9 26 6 13 -9 34 21
25 36 -4 7 -3 10 1 5 5 -4 18 -1 29 6 12 7 31 12 43 11 12 -1 21 2 18 5 -2 4
5 7 15 7 10 0 16 -4 14 -8 -3 -5 -2 -8 3 -7 21 4 29 -3 30 -23 2 -22 1 -22
-12 2 -12 22 -20 21 -16 -2 0 -4 -5 -5 -13 -2 -17 7 -31 -12 -16 -21 6 -4 17
-2 25 5 7 6 16 7 19 2 8 -13 49 -7 54 8 3 9 -1 11 -11 7 -9 -3 -19 -2 -22 2
-8 14 21 32 39 25 14 -5 16 -2 12 20 -2 14 -7 29 -10 34 -3 5 1 9 8 9 8 0 12
-7 9 -16 -2 -9 2 -5 10 8 9 15 17 20 21 12 4 -6 2 -11 -3 -11 -6 0 -11 -4 -11
-10 0 -5 5 -9 11 -7 6 1 13 -4 15 -11 1 -7 0 -8 -3 -2 -2 5 -9 8 -14 4 -5 -3
-5 -13 1 -25 6 -11 16 -17 21 -13 6 3 8 8 5 11 -3 3 -1 14 4 24 7 12 7 20 0
24 -8 5 -7 11 1 21 10 13 15 12 38 -1 l26 -16 -23 20 c-15 13 -18 21 -10 24 7
2 10 7 7 11 -3 4 -12 0 -18 -8z m-21 -22 c0 -8 -19 -13 -24 -6 -3 5 1 9 9 9 8
0 15 -2 15 -3z m-138 -49 c-3 -12 1 -16 12 -12 8 3 18 2 21 -3 10 -16 -12 -20
-31 -6 -10 8 -24 12 -31 9 -7 -3 -13 0 -13 7 0 6 5 8 12 4 7 -5 9 -2 5 8 -4
11 0 15 11 13 10 -1 16 -9 14 -20z m-57 -14 c-3 -6 -11 -11 -16 -11 -5 0 -4 6
3 14 14 16 24 13 13 -3z m-87 -52 c-2 -7 -17 -13 -33 -15 l-30 -3 25 14 c31
18 43 19 38 4z"/>
<path d="M6356 8002 c-2 -4 -1 -14 4 -22 7 -11 9 -9 7 8 -1 24 -3 26 -11 14z"/>
<path d="M6167 7955 c-7 -5 -23 -23 -36 -40 -12 -17 -33 -30 -44 -30 -12 -1
-29 -5 -37 -10 -22 -14 -33 -13 -54 4 -15 12 -17 13 -11 2 6 -11 4 -13 -8 -8
-8 3 -21 -1 -27 -8 -7 -8 -16 -12 -21 -9 -5 3 -6 -2 -3 -10 4 -10 0 -14 -13
-12 -10 2 -31 -6 -48 -18 -16 -11 -33 -21 -37 -21 -4 0 -18 -9 -30 -20 -13
-10 -25 -19 -28 -18 -3 1 -4 -4 -2 -9 2 -6 -4 -8 -13 -5 -8 4 -15 2 -15 -4 0
-6 -5 -7 -12 -3 -7 5 -8 3 -3 -6 6 -10 4 -12 -8 -7 -9 3 -27 -3 -40 -13 -13
-11 -26 -17 -29 -15 -2 2 -17 -7 -33 -21 -16 -13 -39 -27 -52 -30 -13 -4 -23
-10 -23 -16 0 -5 -6 -6 -12 -2 -10 6 -10 5 -1 -8 7 -8 9 -18 5 -23 -4 -4 0 -6
8 -3 8 3 14 14 13 24 -1 10 0 13 3 6 5 -10 9 -9 20 5 12 15 13 15 8 2 -3 -10
-1 -20 5 -24 7 -4 8 0 4 11 -5 14 -3 16 11 11 12 -5 15 -3 11 6 -4 6 0 4 8 -6
10 -12 17 -14 22 -8 3 6 1 11 -6 11 -7 0 -9 3 -6 7 4 3 3 11 -1 18 -4 6 2 2
12 -10 17 -17 18 -17 13 -2 -5 13 -3 16 6 11 8 -6 8 -3 -1 9 -12 14 -11 16 7
12 11 -2 20 -1 20 3 -4 28 2 33 19 15 9 -10 14 -14 10 -9 -11 14 -10 26 2 26
6 0 9 -5 8 -11 -2 -6 3 -13 10 -14 7 -2 8 -1 2 2 -7 3 -7 10 2 21 11 13 11 14
-1 7 -10 -5 -12 -4 -7 4 4 6 11 9 16 6 4 -3 13 2 20 11 11 12 15 12 21 2 7
-10 9 -10 9 1 0 11 4 10 16 -5 13 -15 12 -13 -1 11 -10 17 -12 24 -4 18 18
-17 32 -16 26 1 -4 10 0 14 14 11 10 -2 19 0 19 6 0 5 -5 9 -11 9 -5 0 -7 5
-3 11 4 8 9 7 15 -2 8 -13 13 -5 10 15 -1 5 6 3 15 -5 15 -12 17 -12 9 0 -6
10 -4 12 5 6 9 -6 11 -4 5 6 -8 12 -6 12 8 0 17 -13 23 -6 18 22 0 4 5 6 12 5
6 -2 11 4 9 12 -2 8 0 11 5 7 4 -5 9 -13 9 -18 1 -5 2 -12 3 -16 0 -4 8 2 17
13 8 10 12 13 8 5 -5 -10 -3 -12 7 -7 8 4 5 1 -5 -8 -10 -8 -23 -13 -27 -10
-5 3 -9 0 -9 -5 0 -15 12 -14 36 3 14 10 24 12 35 4 11 -8 10 -9 -6 -4 -19 6
-19 6 -1 -9 10 -8 23 -12 29 -8 6 3 7 1 3 -6 -4 -6 0 -14 9 -17 14 -6 14 -8
-2 -19 -10 -7 -27 -11 -38 -9 -20 3 -20 3 -1 -11 19 -14 11 -21 -17 -16 -5 1
-6 -2 -3 -7 11 -17 -37 -5 -50 13 -8 10 -14 14 -14 9 0 -6 6 -16 13 -23 10
-11 9 -12 -2 -6 -10 6 -12 4 -6 -5 6 -9 4 -11 -4 -5 -9 5 -9 2 0 -14 10 -14
15 -17 21 -8 4 7 8 8 8 4 0 -5 13 1 29 12 15 11 31 18 34 15 3 -3 8 4 12 15 3
11 11 18 18 16 7 -3 18 -1 26 4 12 8 9 16 -15 48 -36 47 -44 90 -8 47 13 -16
23 -25 24 -20 0 4 10 1 23 -7 13 -8 29 -12 36 -8 16 10 -13 24 -46 24 -13 0
-20 4 -16 10 3 6 1 7 -5 3 -6 -3 -9 1 -8 11 3 20 21 20 21 1 0 -6 6 -13 13
-16 11 -3 12 0 2 19 -11 23 -11 23 5 4 15 -19 16 -19 11 15 -3 19 -3 29 0 22
3 -6 10 -10 14 -7 5 3 12 1 15 -5 4 -6 3 -10 -2 -9 -20 3 -23 -2 -12 -22 9
-17 8 -20 -2 -14 -8 5 -10 4 -5 -3 12 -20 26 -13 23 11 -2 17 3 22 23 22 14 0
31 4 38 8 7 5 19 4 27 -3 9 -8 15 -8 20 0 4 6 3 9 -2 8 -5 -2 -21 9 -37 23
l-28 26 21 15 c21 15 21 15 -13 14 -20 0 -41 -5 -49 -11z m63 -57 c0 -4 -4
-10 -10 -13 -6 -4 -7 1 -3 11 4 11 3 15 -5 10 -6 -3 -13 -2 -17 4 -3 5 -11 10
-16 10 -6 0 -3 -7 5 -16 20 -19 20 -25 2 -18 -8 3 -17 12 -20 20 -3 9 -11 12
-18 8 -7 -4 -2 5 11 20 l25 26 23 -27 c12 -16 22 -31 23 -35z m-180 -44 c0 -8
-19 -13 -24 -6 -3 5 1 9 9 9 8 0 15 -2 15 -3z m-223 -79 c0 -8 -4 -12 -9 -9
-5 3 -6 10 -3 15 9 13 12 11 12 -6z m268 -15 c-3 -5 -12 -10 -18 -10 -7 0 -6
4 3 10 19 12 23 12 15 0z m-100 -59 c-9 -8 -36 -10 -30 -2 2 4 11 8 20 8 8 0
13 -3 10 -6z m-348 -26 c0 -8 -4 -12 -9 -9 -5 3 -6 10 -3 15 9 13 12 11 12 -6z
m-23 -23 c2 -4 -5 -9 -17 -9 -17 -2 -19 0 -7 7 18 12 18 12 24 2z"/>
<path d="M6169 7933 c-10 -12 -10 -15 -1 -9 7 4 20 2 30 -6 16 -12 16 -11 2 7
-8 11 -15 21 -16 23 -1 1 -7 -5 -15 -15z"/>
<path d="M5950 7820 c-6 -11 -15 -18 -20 -15 -5 3 -11 1 -15 -5 -4 -6 -10 -8
-15 -5 -5 3 -14 -4 -20 -15 -6 -11 -15 -18 -19 -15 -8 4 -23 -18 -25 -37 -1
-7 -9 -10 -18 -7 -28 8 -48 6 -58 -6 -16 -19 -4 -33 13 -15 10 10 9 11 -2 5
-10 -6 -12 -4 -7 4 6 9 12 8 26 -4 14 -13 19 -13 23 -3 4 10 6 10 6 1 1 -7 9
-13 19 -14 12 0 13 -2 3 -6 -11 -5 -11 -7 0 -15 10 -6 7 -7 -8 -3 -13 3 -23 2
-23 -3 0 -4 14 -8 30 -8 30 0 41 11 18 18 -9 3 -9 6 0 12 7 4 12 2 12 -4 0 -6
4 -9 9 -6 5 3 15 -1 22 -10 7 -8 8 -14 3 -13 -20 3 -31 -2 -31 -15 0 -12 6
-11 27 4 15 11 30 17 33 13 12 -12 19 27 8 41 -8 9 -8 16 -2 20 6 4 8 13 5 20
-9 23 14 28 26 6 8 -16 15 -18 29 -10 10 5 21 6 25 3 3 -3 6 -3 6 0 0 3 -10
11 -21 18 -15 7 -19 8 -15 0 4 -6 1 -9 -7 -5 -7 2 -14 11 -14 19 0 8 5 12 10
8 14 -9 77 -11 82 -2 3 4 -7 16 -23 27 -20 15 -32 18 -45 11 -10 -6 -15 -14
-12 -20 3 -5 -1 -6 -9 -3 -8 3 -13 16 -11 30 3 29 -1 30 -15 4z m7 -16 c-3 -4
-2 -15 4 -25 5 -11 6 -19 2 -18 -4 1 -11 0 -15 -1 -10 -3 -26 -7 -35 -9 -4 0
2 -7 13 -15 18 -14 18 -15 2 -21 -20 -8 -25 -27 -7 -22 6 1 13 -5 14 -14 2
-10 -2 -16 -9 -15 -20 3 -60 35 -52 43 4 4 11 1 16 -7 6 -10 10 -11 10 -3 0 7
-10 17 -21 24 -12 6 -19 7 -16 2 3 -5 2 -15 -4 -23 -6 -11 -9 -12 -9 -2 0 7
-5 10 -12 6 -7 -5 -8 -3 -2 7 5 8 9 17 10 22 1 4 2 10 3 13 0 4 9 0 18 -7 15
-12 16 -12 11 3 -9 21 2 31 19 17 17 -14 17 2 1 20 -9 10 -9 12 -1 7 6 -3 14
-2 18 4 4 6 10 8 15 5 5 -3 11 -1 15 5 3 5 9 10 12 10 4 0 3 -3 0 -6z m82 -28
c0 -6 -3 -6 -6 2 -4 10 -8 10 -21 0 -12 -10 -14 -10 -8 0 4 7 2 12 -6 12 -10
0 -9 3 2 10 16 10 41 -5 39 -24z"/>
<path d="M5916 7782 c-3 -5 1 -12 9 -16 15 -5 31 11 21 21 -3 4 -6 0 -6 -8 0
-12 -2 -12 -9 0 -5 8 -11 9 -15 3z"/>
<path d="M5887 7740 c7 -25 15 -31 30 -22 7 5 3 13 -12 24 -22 17 -23 17 -18
-2z"/>
<path d="M5906 7678 c3 -5 10 -6 15 -3 13 9 11 12 -6 12 -8 0 -12 -4 -9 -9z"/>
<path d="M5766 7685 c-10 -8 -24 -16 -30 -18 -8 -3 -7 -9 2 -18 7 -8 13 -9 12
-4 -5 22 1 27 17 14 15 -12 16 -12 10 4 -4 11 -3 16 4 12 6 -4 8 -13 5 -21 -3
-7 -1 -16 4 -19 6 -4 10 -12 10 -18 0 -8 -3 -8 -9 2 -5 8 -11 9 -15 3 -3 -6 0
-12 6 -15 8 -3 1 -9 -14 -16 -30 -11 -39 -24 -10 -14 9 3 14 3 11 -1 -4 -4
-17 -9 -30 -11 -13 -3 -30 -12 -36 -22 -7 -9 -13 -11 -13 -5 0 7 -4 12 -10 12
-5 0 -9 -3 -7 -7 2 -7 -8 -15 -15 -12 -20 6 -37 5 -33 -1 3 -5 -5 -7 -18 -6
-13 2 -33 -4 -43 -12 -17 -13 -17 -14 -1 -8 12 4 16 2 11 -6 -5 -7 -3 -8 6 -3
9 5 11 4 6 -3 -5 -8 -1 -10 11 -6 15 5 15 4 3 -4 -10 -8 -18 -8 -28 0 -9 8
-16 8 -25 -2 -9 -10 -9 -11 1 -6 7 4 19 3 26 -3 15 -12 66 7 66 25 0 6 6 11
13 11 16 0 183 91 203 110 8 8 11 19 8 25 -4 6 -13 1 -21 -13 -11 -20 -13 -21
-11 -4 2 11 -2 20 -9 20 -21 0 -26 14 -12 32 7 10 9 15 5 11 -5 -4 -14 -4 -20
1 -7 6 -18 4 -30 -4z m55 -50 c3 2 5 -4 5 -15 0 -10 -4 -16 -8 -14 -4 3 -8 1
-8 -4 0 -6 -8 -13 -17 -16 -15 -6 -15 -4 1 13 16 18 17 23 5 38 -12 16 -12 17
2 6 9 -7 18 -11 20 -8z m-165 -117 c4 -7 3 -8 -5 -4 -6 4 -14 0 -17 -8 -8 -20
-15 -20 -39 -2 -18 13 -17 14 8 11 15 -2 29 1 33 6 7 12 11 11 20 -3z"/>
<path d="M5692 7680 c2 -8 -3 -14 -10 -12 -8 1 -11 -2 -8 -7 3 -5 -4 -20 -15
-35 -17 -22 -24 -24 -41 -15 -13 7 -18 7 -14 1 3 -6 2 -13 -3 -16 -5 -4 -13
-1 -17 5 -5 9 -15 3 -32 -17 -13 -16 -21 -23 -17 -16 3 7 -1 15 -10 18 -12 5
-13 9 -5 14 9 5 8 9 -2 12 -8 3 -22 0 -33 -8 -14 -10 -15 -14 -4 -14 12 0 12
-2 -1 -10 -9 -6 -17 -5 -23 3 -6 8 -7 5 -3 -7 6 -16 4 -17 -9 -6 -8 7 -15 10
-16 6 -5 -28 -1 -50 9 -54 8 -2 10 3 6 15 -4 14 -4 15 4 4 8 -11 11 -9 17 8 6
19 27 31 24 14 -1 -5 -1 -15 0 -23 1 -13 3 -13 11 1 5 9 17 15 27 14 20 -1 30
-20 11 -20 -6 0 -13 -6 -16 -14 -3 -9 0 -11 8 -6 9 5 11 4 6 -4 -4 -6 -11 -9
-16 -6 -10 6 -8 -15 4 -33 4 -7 5 -16 2 -19 -3 -4 -6 -1 -6 6 0 7 -5 9 -12 5
-8 -5 -6 -11 6 -19 14 -11 13 -13 -14 -11 -16 0 -30 5 -30 10 0 6 -11 -5 -24
-23 -14 -19 -27 -28 -31 -21 -3 5 -11 8 -16 5 -5 -3 -6 2 -3 12 5 15 4 15 -4
3 -6 -8 -8 -19 -5 -25 3 -5 0 -4 -8 3 -7 6 -18 12 -23 12 -6 0 0 -10 14 -21
14 -11 19 -17 11 -13 -10 5 -12 3 -6 -6 6 -9 4 -11 -5 -5 -9 6 -11 4 -5 -5 6
-9 4 -11 -5 -5 -8 5 -11 4 -6 -3 7 -12 -25 -9 -46 4 -6 4 -8 3 -4 -4 3 -6 1
-14 -5 -18 -8 -4 -9 -3 -5 4 5 8 1 10 -11 6 -14 -4 -15 -3 -4 4 7 5 9 12 4 15
-5 3 -15 -3 -22 -15 -9 -15 -10 -18 0 -13 8 5 10 4 5 -3 -5 -8 -1 -10 11 -7
10 3 8 0 -4 -6 -13 -7 -23 -16 -23 -21 0 -5 6 -6 13 -2 6 4 8 3 4 -1 -14 -16
-36 -14 -30 3 4 15 3 15 -6 2 -9 -13 -11 -13 -11 0 -1 12 -3 11 -11 -3 -5 -9
-8 -21 -4 -26 3 -5 1 -13 -5 -16 -6 -4 -10 -3 -9 2 3 20 -2 34 -11 28 -7 -4
-6 -14 1 -28 10 -22 10 -22 -7 -2 -11 14 -15 15 -11 4 3 -9 0 -16 -9 -16 -7 0
-11 4 -8 9 6 10 -14 38 -27 38 -5 0 -9 -4 -9 -10 0 -5 7 -10 15 -10 8 0 15 -5
15 -11 0 -7 -9 -6 -23 4 -17 11 -28 12 -38 5 -11 -8 -9 -8 6 -3 11 3 16 3 12
-1 -4 -4 -2 -13 4 -21 9 -10 8 -13 -1 -13 -7 0 -10 -7 -6 -15 4 -12 2 -13 -13
-6 -18 10 -31 6 -31 -10 0 -4 9 -6 19 -4 14 3 18 -1 14 -12 -3 -8 -9 -11 -12
-6 -3 4 -10 9 -16 10 -5 1 -17 3 -25 5 -8 2 -14 -2 -13 -9 2 -8 -4 -10 -15 -6
-15 5 -14 4 2 -9 16 -13 16 -15 2 -15 -9 0 -16 5 -16 10 0 5 -7 4 -15 -3 -11
-9 -12 -16 -5 -25 8 -9 4 -12 -15 -10 -27 3 -30 -2 -15 -25 7 -11 10 -11 10
-2 0 7 4 11 9 7 5 -3 19 7 30 21 12 15 21 21 21 13 0 -8 8 -4 21 10 12 12 27
20 35 17 7 -3 19 3 26 12 7 9 20 17 28 17 8 0 16 6 16 13 3 25 5 27 14 12 7
-11 10 -11 10 -2 0 7 4 11 8 8 5 -3 21 6 37 20 15 13 36 24 47 24 10 0 18 3
18 8 0 4 14 13 30 20 29 13 41 32 20 32 -5 0 -10 -4 -10 -10 0 -5 -5 -10 -12
-10 -8 0 -6 6 4 17 14 13 20 14 31 4 12 -9 18 -8 31 4 9 9 16 13 16 9 0 -4 9
1 21 12 12 10 24 18 28 17 3 0 5 4 3 9 -2 6 4 8 11 5 8 -3 20 0 26 6 7 7 15
12 20 12 4 0 24 11 44 25 36 25 47 40 27 40 -5 0 -10 -6 -10 -12 0 -9 -3 -8
-10 2 -6 9 -5 19 3 29 7 8 11 16 10 18 -7 9 -2 23 6 18 5 -3 12 -1 16 4 3 6
12 8 20 4 8 -3 15 0 15 5 0 6 -9 9 -19 7 -13 -2 -18 1 -16 13 2 9 4 20 4 24 1
4 7 5 15 2 8 -3 17 -1 20 4 7 12 46 4 46 -10 0 -5 -5 -6 -12 -2 -6 4 -8 3 -4
-4 3 -6 2 -14 -4 -17 -6 -4 -10 -3 -9 2 3 18 -1 36 -8 29 -17 -17 -8 -47 10
-33 2 1 12 -4 21 -12 15 -12 17 -12 14 0 -2 8 4 14 13 14 9 0 34 13 55 28 21
15 35 27 30 27 -5 0 -3 6 3 14 9 10 8 16 -4 26 -9 8 -15 9 -14 4 5 -27 -5 -25
-31 6 -17 19 -29 28 -28 20z m32 -97 c-16 -12 -32 -19 -36 -17 -5 3 -17 0 -26
-8 -15 -12 -16 -11 -3 5 10 13 11 21 3 29 -8 8 -4 19 16 43 l27 31 23 -30 23
-31 -27 -22z m-219 18 c-3 -6 1 -14 10 -18 12 -7 12 -10 -4 -20 -16 -10 -18
-8 -15 15 2 32 2 32 10 32 3 0 3 -4 -1 -9z m66 -20 c-6 -10 -7 -22 -3 -26 4
-5 1 -5 -6 -1 -9 5 -9 12 -2 27 6 10 13 19 16 19 2 0 0 -8 -5 -19z m-67 -163
c-3 -5 -9 -6 -14 -3 -4 3 -13 -2 -20 -10 -7 -8 -16 -12 -22 -9 -15 10 9 30 36
30 14 0 22 -4 20 -8z m-83 -35 c7 -10 9 -15 4 -10 -4 4 -17 -1 -28 -10 -14
-13 -18 -13 -11 -3 5 8 9 18 10 23 3 14 4 17 8 17 2 0 10 -8 17 -17z m-196
-103 c3 -5 1 -10 -4 -10 -6 0 -11 5 -11 10 0 6 2 10 4 10 3 0 8 -4 11 -10z
m-99 -55 c-13 -10 -14 -14 -4 -18 9 -4 9 -6 1 -6 -19 -1 -26 19 -8 25 14 6 14
8 -2 21 -16 13 -16 13 6 2 23 -11 23 -13 7 -24z m-76 -50 c0 -2 -6 -5 -13 -8
-8 -3 -14 1 -14 8 0 7 6 11 14 8 7 -3 13 -6 13 -8z"/>
<path d="M5682 7627 c-21 -23 -21 -24 -5 -40 17 -14 20 -14 41 2 23 17 23 18
5 40 l-18 22 -23 -24z m39 -8 c6 -12 7 -19 1 -15 -5 3 -13 -1 -16 -10 -5 -13
-9 -14 -20 -4 -13 10 -12 14 2 31 20 23 19 24 33 -2z"/>
<path d="M5696 7615 c-9 -26 -7 -32 5 -12 6 10 9 21 6 23 -2 3 -7 -2 -11 -11z"/>
<path d="M5585 7560 c4 -6 11 -8 16 -5 14 9 11 15 -7 15 -8 0 -12 -5 -9 -10z"/>
<path d="M5391 7547 c-7 -7 -15 -12 -19 -13 -14 -1 -72 -39 -72 -47 0 -5 -4
-6 -8 -3 -4 2 -14 1 -22 -4 -12 -7 -12 -12 3 -28 9 -10 14 -22 10 -27 -5 -4
-2 -5 5 -1 11 6 10 12 -5 29 -15 19 -14 19 9 -2 15 -13 32 -20 40 -16 7 3 4
-1 -6 -9 -11 -9 -14 -16 -8 -16 7 0 11 -6 10 -12 -2 -7 3 -12 10 -10 8 1 11
-2 7 -8 -5 -8 -12 -7 -23 2 -9 7 -13 8 -9 2 3 -6 -1 -11 -9 -11 -10 0 -11 4
-4 11 15 15 12 30 -3 17 -8 -6 -17 -8 -20 -4 -4 3 -7 1 -7 -6 0 -7 -4 -10 -9
-7 -5 4 -12 0 -15 -6 -3 -7 -3 -3 0 10 6 23 -10 31 -22 10 -5 -7 -3 -8 6 -3 9
5 11 4 6 -4 -4 -6 -2 -18 4 -26 9 -11 9 -15 1 -15 -6 0 -11 5 -11 11 0 8 -5 7
-15 -1 -9 -7 -13 -20 -10 -29 3 -11 0 -10 -10 3 -14 19 -21 11 -16 -17 1 -5
-3 -6 -9 -2 -6 4 -7 -1 -4 -12 5 -15 4 -15 -4 -3 -8 10 -8 18 0 27 7 9 7 13 0
13 -6 0 -14 -4 -17 -10 -3 -5 -16 -15 -28 -20 -20 -10 -21 -10 -4 3 16 13 16
15 2 21 -11 4 -14 2 -9 -7 5 -9 4 -9 -7 1 -11 10 -9 15 10 28 18 13 20 18 10
25 -10 6 -7 8 9 6 12 0 22 -5 22 -10 0 -4 5 -5 11 -1 8 4 7 9 -2 15 -11 7 -11
9 -1 9 7 0 10 5 6 11 -5 8 -10 6 -16 -5 -5 -9 -14 -14 -19 -10 -6 3 -21 -4
-35 -17 -13 -12 -24 -19 -24 -15 0 4 -13 -2 -29 -13 -16 -12 -34 -21 -40 -21
-6 0 -11 -5 -11 -11 0 -5 -6 -7 -12 -3 -9 6 -9 3 0 -9 12 -14 11 -16 -10 -15
-28 2 -79 -22 -72 -33 3 -5 -5 -9 -18 -9 -24 -1 -58 -21 -58 -35 0 -4 7 -2 15
5 9 7 15 8 15 2 0 -16 -26 -22 -39 -9 -9 9 -10 7 -5 -8 7 -17 6 -18 -8 -7 -11
9 -18 10 -23 2 -6 -10 -5 -11 14 -14 12 -1 26 -15 27 -27 1 -5 3 -11 4 -14 1
-3 3 -8 4 -12 5 -24 28 -53 38 -47 6 4 8 -2 4 -17 -3 -13 -3 -18 0 -11 3 6 10
10 15 6 5 -3 9 2 9 10 0 9 -5 16 -10 16 -6 0 -9 3 -9 8 1 4 0 10 -1 15 -3 9
-7 25 -9 34 0 4 -8 -2 -16 -13 -11 -13 -14 -14 -13 -4 2 8 10 21 18 27 13 11
12 12 -5 7 -17 -5 -18 -4 -5 6 13 10 12 11 -5 6 -19 -6 -19 -6 -1 9 10 8 23
12 27 9 12 -7 11 3 0 25 -8 15 -4 17 31 16 24 0 43 -5 46 -12 3 -12 -10 -18
-33 -13 -5 1 -5 -4 2 -11 10 -10 16 -9 29 2 10 8 15 9 11 2 -4 -7 0 -16 10
-22 10 -6 12 -11 6 -11 -7 0 -16 0 -20 -1 -5 0 -13 -10 -20 -22 l-12 -22 2 23
c1 12 6 22 11 22 5 0 6 3 3 6 -12 13 -35 -17 -32 -41 1 -14 -2 -22 -6 -19 -5
3 -4 -7 3 -21 7 -15 14 -22 16 -16 2 6 8 9 13 5 15 -9 6 19 -11 34 -8 8 -10
11 -3 8 6 -4 16 2 22 11 6 10 11 13 11 7 0 -6 18 6 41 28 22 21 44 36 48 33 5
-2 14 2 21 10 7 8 16 13 20 10 16 -10 22 17 6 28 -11 9 -13 16 -6 27 5 8 10
11 10 7 0 -4 9 -3 21 3 16 9 24 8 39 -5 17 -15 19 -15 34 7 11 15 16 17 16 8
1 -12 3 -11 10 2 6 10 19 15 30 13 11 -2 20 1 20 6 0 5 -6 9 -14 7 -8 -2 -14
1 -13 7 1 5 7 10 12 10 6 0 11 4 12 9 2 15 27 25 38 17 5 -5 18 -7 28 -6 9 2
17 -2 17 -8 0 -6 7 -4 17 5 13 14 14 20 4 32 -14 16 2 32 21 20 6 -4 8 -3 5 3
-4 6 0 13 8 17 8 3 19 -3 25 -12 9 -15 12 -14 33 10 17 21 26 25 40 17 9 -6
17 -7 16 -2 -1 4 0 10 1 13 1 3 3 16 5 30 1 14 6 34 9 45 4 11 0 8 -9 -7 -16
-29 -30 -35 -40 -18 -4 6 1 7 11 3 14 -5 16 -3 11 11 -4 10 -7 20 -7 23 0 3
-8 -5 -19 -18 -16 -20 -21 -21 -35 -10 -9 7 -14 17 -11 21 9 14 -11 20 -24 7z
m15 -6 c-8 -12 30 -44 43 -37 5 4 13 1 16 -5 4 -5 13 -8 19 -6 7 3 13 -1 13
-8 0 -8 -7 -11 -15 -7 -11 4 -13 1 -7 -8 5 -7 4 -11 -1 -7 -5 3 -18 -1 -29 -9
-10 -8 -15 -14 -11 -14 4 0 4 -5 1 -10 -10 -17 -35 9 -28 28 5 14 2 13 -18 -3
-13 -12 -33 -27 -44 -35 -18 -14 -19 -14 -6 3 7 9 12 17 10 18 -2 0 -13 2 -23
4 -10 2 -25 11 -33 19 -7 9 -10 14 -6 11 3 -3 15 2 25 12 10 9 18 12 18 7 0
-5 7 2 16 14 8 12 19 20 24 17 4 -3 13 2 20 10 13 16 25 21 16 6z m-311 -181
c-13 -14 -15 -23 -7 -33 7 -8 7 -18 2 -27 -9 -13 -10 -13 -10 0 0 10 -5 7 -16
-8 -8 -12 -20 -19 -26 -16 -6 4 -9 1 -6 -7 3 -8 10 -14 16 -14 6 0 17 -6 24
-14 7 -8 8 -11 2 -8 -7 4 -17 0 -24 -8 -7 -8 -16 -13 -20 -10 -5 3 -11 1 -15
-4 -3 -6 -12 -8 -21 -4 -8 3 -14 2 -12 -3 3 -10 -5 -14 -24 -14 -6 0 -3 7 8
16 10 8 13 12 6 9 -8 -4 -20 2 -29 15 -8 12 -21 19 -29 16 -8 -3 -11 0 -8 9 3
8 9 14 12 13 21 -2 32 3 26 13 -5 8 -1 8 14 0 15 -8 23 -7 32 4 7 8 9 15 4 15
-4 0 10 13 32 29 21 16 42 27 45 25 4 -2 12 3 19 11 7 8 15 15 18 15 3 0 -3
-9 -13 -20z m59 -66 c5 -14 4 -15 -9 -4 -17 14 -19 20 -6 20 5 0 12 -7 15 -16z
m-284 -189 c0 -12 -19 -12 -23 0 -4 9 -1 12 9 8 7 -3 14 -7 14 -8z"/>
<path d="M5385 7521 c-3 -6 -10 -9 -15 -6 -5 3 -14 -4 -20 -15 -6 -11 -15 -18
-19 -15 -5 2 -15 -3 -22 -12 -8 -9 -9 -14 -2 -10 6 4 14 1 16 -5 4 -10 6 -10
6 0 1 6 6 12 12 12 5 0 8 -4 4 -9 -12 -20 17 -22 38 -3 25 22 56 19 37 -3 -8
-10 -8 -15 1 -21 7 -4 9 -3 6 3 -4 6 5 18 18 27 24 15 27 44 4 30 -6 -3 -21 4
-34 16 -15 14 -25 18 -30 11z m64 -36 c12 5 13 3 5 -5 -9 -9 -17 -9 -32 -1
-15 8 -23 6 -37 -9 -10 -11 -23 -20 -29 -19 -6 0 -5 3 3 6 11 5 11 7 0 14 -11
7 -11 9 -1 9 7 0 10 5 6 12 -4 6 -3 8 3 5 6 -4 14 1 17 10 6 14 9 13 27 -6 13
-14 27 -20 38 -16z"/>
<path d="M5381 7487 c-13 -21 -12 -21 5 -5 10 10 16 20 13 22 -3 3 -11 -5 -18
-17z"/>
<path d="M5060 7342 c0 -7 -6 -12 -14 -12 -7 0 -26 -16 -40 -35 -15 -20 -31
-33 -36 -30 -4 3 -15 2 -23 -1 -14 -5 -14 -8 1 -24 8 -11 19 -17 24 -14 5 3
15 1 23 -6 9 -8 15 -8 20 0 3 6 10 8 15 5 4 -3 14 3 21 13 7 9 9 14 4 9 -9 -7
-45 20 -45 34 0 4 9 6 20 4 12 -2 24 4 30 16 7 11 16 17 23 12 7 -4 5 2 -3 13
-8 10 -16 21 -17 23 -2 2 -3 -1 -3 -7z m-2 -32 c-7 -11 -15 -15 -17 -9 -2 8
-7 7 -13 -2 -8 -11 -9 -11 -5 1 2 8 9 15 15 15 5 0 14 3 18 8 14 13 14 7 2
-13z m-32 -62 c10 -13 15 -20 10 -16 -5 4 -16 2 -24 -5 -10 -8 -13 -8 -9 -1
10 16 -18 25 -33 11 -10 -9 -11 -9 -6 0 3 6 3 13 -1 16 -5 2 -3 2 4 1 7 -2 15
1 18 6 9 15 20 12 41 -12z"/>
<path d="M4990 7256 c0 -2 7 -7 16 -10 8 -3 12 -2 9 4 -6 10 -25 14 -25 6z"/>
<path d="M5240 7462 c0 -7 -3 -11 -7 -10 -5 1 -20 -4 -35 -12 -21 -10 -27 -19
-24 -36 4 -23 -15 -50 -27 -37 -4 3 -14 0 -22 -7 -12 -10 -13 -15 -3 -21 7 -4
17 -4 23 1 7 5 20 11 31 13 29 4 46 18 40 32 -7 18 20 39 36 29 22 -14 37 -13
50 4 12 15 11 16 -4 3 -16 -12 -22 -9 -20 10 1 4 -8 15 -18 24 -12 11 -20 13
-20 7z m26 -36 c2 -14 0 -15 -12 -5 -12 10 -18 9 -32 -5 -9 -9 -17 -24 -17
-33 0 -9 -8 -17 -18 -19 -9 -1 -15 2 -11 7 3 5 10 7 15 4 12 -8 11 6 -1 25 -7
11 -4 19 11 31 27 20 62 17 65 -5z"/>
<path d="M5206 7425 c-11 -8 -15 -15 -9 -15 6 0 16 7 23 15 16 19 11 19 -14 0z"/>
<path d="M4871 7225 c-1 -6 4 -16 11 -23 9 -9 9 -12 -2 -13 -8 -1 -19 -1 -23
0 -5 1 -5 -4 0 -11 4 -7 8 -17 8 -22 0 -5 6 -10 13 -12 7 -1 8 0 2 3 -7 3 -3
11 10 20 15 10 18 19 12 25 -6 6 -8 18 -5 27 4 13 3 13 -5 2 -8 -11 -10 -11
-15 0 -3 8 -6 9 -6 4z m24 -45 c-3 -5 -12 -10 -18 -10 -7 0 -6 4 3 10 19 12
23 12 15 0z"/>
<path d="M4910 7219 c0 -5 5 -7 10 -4 6 3 10 8 10 11 0 2 -4 4 -10 4 -5 0 -10
-5 -10 -11z"/>
<path d="M8162 8841 c-9 -17 -21 -31 -25 -31 -5 0 -6 -4 -2 -10 9 -15 34 0 28
18 -3 10 -1 13 4 7 9 -12 23 -13 40 -2 6 4 15 2 19 -4 4 -8 3 -9 -5 -5 -7 5
-10 2 -9 -6 2 -7 -2 -12 -9 -11 -7 2 -10 -4 -6 -12 5 -13 7 -13 20 2 8 10 11
11 7 3 -6 -11 -2 -10 13 3 22 19 38 23 27 5 -4 -7 -3 -8 4 -4 8 5 10 2 6 -9
-5 -13 -1 -15 21 -11 24 4 25 3 13 -11 -8 -11 -9 -14 -1 -10 8 5 11 1 8 -13
-5 -25 2 -25 23 -2 10 10 14 13 10 7 -10 -16 7 -39 23 -31 8 4 5 0 -5 -8 -11
-9 -15 -16 -10 -16 6 0 16 6 23 13 8 6 11 7 8 2 -3 -6 3 -11 13 -11 10 0 16 5
13 10 -4 5 -1 6 7 1 9 -6 11 -4 5 5 -5 9 -4 11 4 6 7 -5 9 -12 3 -19 -12 -16
-1 -51 17 -55 12 -3 12 0 1 12 -7 9 -9 16 -4 16 5 0 2 5 -6 10 -12 7 -10 9 7
7 12 0 21 -6 20 -12 -1 -5 4 -9 11 -7 6 1 12 -2 12 -7 0 -5 11 -8 25 -7 14 2
22 -1 18 -7 -3 -6 -1 -7 6 -3 15 10 3 29 -14 22 -7 -2 -16 2 -19 10 -3 9 -10
12 -16 9 -5 -3 -10 -1 -10 5 0 7 -7 10 -15 6 -9 -3 -15 0 -15 8 0 15 -27 30
-49 27 -8 -1 -10 2 -5 10 4 7 3 10 -4 5 -6 -3 -14 0 -19 8 -4 8 -15 16 -23 18
-8 2 -21 9 -28 16 -11 10 -17 10 -28 1 -11 -9 -13 -9 -9 2 3 8 -4 20 -15 27
-13 8 -20 8 -20 1 0 -5 -5 -7 -10 -4 -6 4 -8 10 -6 14 3 4 -8 15 -25 25 l-29
17 -18 -30z m48 -1 c0 -14 -15 -19 -29 -10 -17 10 -5 31 14 23 8 -3 15 -9 15
-13z m140 -75 c0 -2 -6 -8 -13 -14 -10 -8 -14 -7 -14 2 0 8 6 14 14 14 7 0 13
-1 13 -2z m62 -40 c10 6 10 5 1 -5 -10 -11 -15 -11 -28 0 -8 7 -15 9 -15 6 0
-4 -5 -4 -10 -1 -6 4 -8 11 -4 16 4 6 13 4 24 -6 11 -10 24 -14 32 -10z"/>
<path d="M8097 8811 c-9 -12 -9 -13 1 -7 6 4 12 3 12 -3 0 -5 -4 -12 -8 -15
-10 -6 -9 -57 2 -74 4 -7 12 -10 17 -7 5 4 9 1 9 -5 0 -6 5 -8 10 -5 6 3 10 1
10 -5 0 -6 5 -8 11 -4 8 5 6 10 -7 18 -21 12 -31 46 -14 46 6 0 8 5 5 10 -4 7
-14 6 -28 -1 -17 -9 -19 -9 -11 0 6 7 24 14 40 17 23 3 26 2 14 -6 -12 -9 -10
-10 9 -5 16 5 21 4 17 -4 -4 -6 -15 -11 -24 -11 -14 0 -15 -2 -2 -10 9 -6 17
-5 23 3 6 8 7 5 3 -8 l-6 -20 15 20 c9 11 20 21 25 21 6 1 15 2 21 3 5 0 7 6
3 13 -4 7 -3 8 5 4 6 -4 9 -12 6 -17 -6 -9 9 -13 30 -9 6 1 4 -4 -2 -11 -19
-19 -16 -32 5 -25 10 4 7 -2 -8 -14 -15 -12 -18 -18 -7 -14 10 4 17 1 17 -6 0
-6 4 -9 10 -5 5 3 7 13 4 23 -5 13 -4 14 4 4 5 -8 13 -14 18 -15 5 -1 8 -6 6
-10 -1 -5 3 -5 9 -2 8 6 8 2 0 -12 -15 -29 0 -38 17 -11 11 19 12 20 8 3 -6
-18 -4 -17 12 3 17 21 18 22 18 3 0 -11 -5 -17 -11 -15 -5 3 -1 -2 10 -12 17
-14 18 -16 2 -10 -10 3 -15 2 -12 -3 3 -5 1 -13 -5 -16 -8 -5 -7 -11 1 -21 8
-10 8 -14 0 -14 -6 0 -11 5 -11 11 0 5 -4 8 -8 5 -4 -2 -14 -1 -21 3 -9 6 -10
11 -2 15 6 4 11 2 11 -4 0 -6 5 -8 11 -4 16 10 -8 23 -37 19 -13 -1 -21 2 -18
7 3 5 2 8 -3 7 -23 -4 -31 3 -29 25 2 17 -1 23 -10 19 -8 -3 -12 -8 -9 -12 2
-4 -3 -8 -11 -8 -10 0 -11 4 -4 11 15 15 12 29 -5 22 -9 -3 -18 1 -22 9 -5 13
-7 13 -19 -2 -13 -17 -14 -17 -8 0 3 9 2 17 -3 17 -5 0 -10 -8 -10 -17 0 -20
27 -44 39 -36 5 2 11 -2 14 -11 3 -9 12 -12 21 -9 12 5 14 3 8 -7 -5 -9 -4
-11 3 -6 7 4 12 2 12 -4 0 -6 5 -8 10 -5 6 3 10 2 10 -2 0 -5 17 -17 38 -28
20 -11 40 -24 44 -30 4 -5 8 -7 8 -3 0 4 9 0 20 -10 12 -9 22 -15 23 -12 1 3
15 -5 31 -17 16 -13 33 -23 38 -23 5 0 18 -9 30 -20 12 -10 24 -17 28 -15 4 3
13 -2 20 -10 7 -8 19 -15 26 -15 8 0 14 -4 14 -9 0 -8 37 -24 53 -22 4 1 7 -4
7 -10 0 -6 7 -8 16 -5 12 5 15 2 10 -9 -3 -9 -2 -13 4 -10 6 3 10 1 10 -5 0
-6 5 -8 10 -5 6 3 10 1 10 -5 0 -6 4 -9 9 -6 5 3 12 -1 15 -10 3 -8 10 -13 15
-10 5 3 14 -1 21 -9 7 -8 16 -12 21 -9 5 3 9 0 9 -5 0 -6 9 -11 21 -11 13 0
18 -4 13 -12 -4 -7 -4 -10 1 -6 4 4 14 0 21 -10 9 -11 13 -13 14 -4 0 7 5 10
10 7 6 -4 8 -10 5 -15 -8 -13 22 -19 35 -7 10 9 12 8 7 -5 -3 -10 -1 -20 5
-24 7 -4 8 -3 4 4 -12 19 1 14 27 -10 13 -13 39 -32 58 -43 39 -23 61 -31 39
-16 -10 7 -11 11 -3 11 7 0 17 -9 23 -20 6 -11 15 -18 20 -15 4 3 10 1 12 -4
1 -5 10 -11 18 -13 8 -2 21 -11 28 -20 7 -10 19 -18 25 -18 7 0 23 -9 36 -19
14 -10 31 -16 40 -13 10 4 12 1 6 -9 -4 -8 -5 -11 0 -7 4 4 14 1 21 -7 8 -8
22 -11 31 -8 10 4 14 2 10 -4 -7 -11 73 -65 102 -69 8 -2 17 -8 21 -14 5 -8 9
-6 14 6 4 9 2 22 -4 28 -8 8 -9 5 -4 -9 l7 -20 -17 20 c-10 11 -14 14 -10 6 5
-9 3 -12 -5 -7 -6 4 -9 12 -5 17 3 5 2 9 -3 8 -24 -4 -35 2 -29 19 5 14 4 14
-9 -2 -8 -11 -15 -14 -15 -8 0 7 -3 11 -7 11 -30 -5 -37 10 -20 39 9 13 -5 17
-17 5 -3 -4 -13 -8 -22 -9 -12 -2 -13 1 -3 12 7 9 8 14 1 14 -6 0 -12 -5 -14
-12 -3 -9 -6 -9 -12 0 -4 7 -2 12 5 12 7 0 5 9 -7 22 -19 22 -19 23 1 8 18
-14 19 -14 6 2 -7 10 -17 15 -22 12 -5 -3 -9 0 -9 6 0 7 7 9 16 6 8 -3 12 -2
9 3 -10 16 -43 8 -38 -9 4 -13 3 -13 -7 0 -10 13 -11 13 -6 -2 3 -10 1 -18 -4
-18 -6 0 -10 7 -10 15 0 8 -4 15 -10 15 -5 0 -9 -5 -7 -11 1 -6 -5 -14 -13
-16 -12 -4 -12 -3 -1 5 8 6 9 12 3 16 -6 3 -12 3 -15 -1 -2 -5 -2 -2 0 5 1 8
-2 10 -9 6 -7 -5 -8 -3 -3 6 5 9 4 11 -3 6 -8 -5 -10 -1 -6 11 6 15 4 15 -10
-2 -13 -16 -15 -17 -10 -2 3 9 2 17 -4 17 -5 0 -13 8 -16 17 -6 14 -4 14 14
-2 15 -14 21 -15 18 -5 -2 8 3 15 10 16 6 1 15 2 18 3 4 0 1 8 -6 16 -7 8 -16
12 -21 9 -5 -3 -6 3 -3 13 6 16 4 15 -10 -2 -10 -11 -15 -14 -11 -8 4 8 1 11
-8 7 -8 -3 -20 2 -27 11 -7 8 -17 15 -23 15 -6 0 8 -14 31 -31 23 -17 42 -33
42 -37 0 -3 -5 -1 -12 6 -17 17 -31 15 -24 -3 4 -13 2 -14 -14 -5 -11 6 -20 7
-20 3 0 -4 -5 -2 -11 4 -6 6 -19 9 -28 6 -13 -4 -14 -3 -1 5 8 6 18 8 22 6 4
-3 8 -1 8 5 0 15 -18 23 -25 11 -8 -13 -55 21 -47 35 3 6 -3 3 -14 -5 -18 -14
-18 -14 -5 3 18 23 7 34 -16 16 -15 -12 -16 -12 -8 1 8 13 7 13 -8 1 -15 -12
-21 -9 -19 10 1 3 -9 5 -22 4 -13 -2 -23 3 -23 10 0 7 6 11 14 8 7 -3 13 -1
13 4 0 5 -9 9 -21 10 -15 1 -19 -2 -15 -15 5 -15 5 -15 -6 -1 -7 9 -18 14 -25
12 -18 -6 -25 14 -13 39 10 20 9 21 -2 6 -13 -15 -15 -15 -26 0 -7 9 -10 11
-7 5 4 -8 1 -11 -9 -7 -9 3 -13 11 -9 17 3 6 1 7 -5 3 -8 -5 -10 -2 -6 8 7 18
-11 22 -22 4 -5 -7 -3 -8 6 -3 9 5 11 4 6 -3 -10 -17 -29 -15 -22 3 7 20 -27
38 -44 22 -7 -7 -5 2 5 18 9 17 11 22 3 13 -13 -15 -15 -15 -26 0 -11 16 -11
16 -6 0 8 -22 1 -22 -39 -1 -18 9 -36 17 -40 18 -4 0 -12 6 -16 14 -5 7 -15
10 -22 7 -8 -4 -5 0 6 10 17 14 18 16 2 10 -13 -4 -16 -2 -11 7 5 7 0 6 -12
-3 -17 -14 -18 -14 -6 2 8 9 21 14 30 11 14 -4 15 -3 2 5 -12 9 -12 13 4 30
13 15 14 22 5 28 -7 4 -10 3 -6 -3 8 -13 -17 -36 -27 -26 -4 4 -4 0 -1 -8 3
-9 -2 -22 -12 -29 -15 -12 -16 -12 -5 0 15 17 16 30 2 30 -5 0 -9 -5 -7 -11 1
-6 -5 -13 -13 -14 -11 -2 -16 5 -16 21 0 12 4 20 10 17 5 -4 6 -1 1 7 -6 9 -4
11 6 5 12 -8 12 -6 0 8 -7 9 -17 14 -22 11 -5 -3 -9 0 -9 7 0 7 -3 9 -6 6 -4
-4 -1 -13 6 -22 12 -14 7 -20 -14 -16 -5 1 -3 -5 4 -14 7 -8 10 -18 7 -21 -3
-3 -10 4 -17 15 -6 12 -7 21 -3 21 4 0 1 4 -7 10 -9 6 -20 5 -30 -3 -8 -6 -12
-7 -8 -3 4 5 3 15 -3 23 -9 9 -8 13 0 13 6 0 11 -5 11 -12 0 -6 3 -8 7 -4 5 4
0 13 -9 20 -15 11 -15 13 3 24 14 9 18 9 17 1 -2 -6 2 -13 7 -15 6 -2 11 4 12
15 1 14 -4 19 -18 16 -15 -3 -19 0 -15 13 8 26 -6 40 -39 38 -20 -1 -30 4 -30
14 0 8 -9 15 -20 15 -11 0 -21 6 -21 13 -1 6 -3 15 -4 20 -1 4 -2 11 -1 15 1
5 -4 5 -10 1 -7 -4 -18 1 -25 10 -11 16 -14 16 -37 1 -24 -15 -26 -15 -36 3
-6 11 -7 23 -3 27 4 5 -4 1 -17 -8 -28 -19 -60 -5 -41 18 7 8 5 12 -5 12 -9 0
-21 -7 -28 -16z m33 -25 c0 -2 -7 -7 -16 -10 -8 -3 -12 -2 -9 4 6 10 25 14 25
6z m-6 -68 c-9 -14 -23 2 -17 18 4 12 8 13 14 3 4 -7 5 -17 3 -21z m111 -40
c5 4 5 2 2 -5 -6 -9 -18 -10 -45 -4 -2 1 0 6 3 11 5 8 11 8 19 1 7 -6 17 -7
21 -3z m195 -138 c0 -5 -2 -10 -4 -10 -3 0 -8 5 -11 10 -3 6 -1 10 4 10 6 0
11 -4 11 -10z m300 -155 c0 -12 -19 -12 -23 0 -4 9 -1 12 9 8 7 -3 14 -7 14
-8z m38 -50 c-3 -3 -9 2 -12 12 -6 14 -5 15 5 6 7 -7 10 -15 7 -18z m42 -17
c0 -6 -6 -5 -15 2 -8 7 -15 14 -15 16 0 2 7 1 15 -2 8 -4 15 -11 15 -16z m190
-103 c4 3 13 -2 20 -10 9 -10 9 -15 1 -15 -6 0 -11 5 -11 10 0 6 -5 9 -11 8
-6 -2 -13 3 -14 10 -2 7 -1 8 2 2 2 -5 8 -8 13 -5z m176 -27 c3 -4 -1 -5 -10
-4 -8 1 -18 5 -22 8 -3 4 1 5 10 4 8 -1 18 -5 22 -8z m-36 -52 c0 -10 -30 0
-34 11 -4 11 -1 11 14 3 11 -6 20 -12 20 -14z m150 -76 c0 -17 -28 -17 -51 1
-13 11 -17 17 -8 13 10 -3 20 0 24 6 7 12 35 -4 35 -20z"/>
<path d="M9256 8071 c-4 -5 -2 -12 3 -15 5 -4 12 -2 15 3 4 5 2 12 -3 15 -5 4
-12 2 -15 -3z"/>
<path d="M8202 8730 c-7 -11 -9 -20 -5 -19 19 3 34 -2 29 -9 -3 -5 3 -8 12 -7
18 1 28 19 12 21 -5 1 -13 3 -17 4 -5 1 -11 2 -15 1 -4 0 -5 6 -2 14 9 21 1
19 -14 -5z"/>
<path d="M8230 8742 c0 -15 11 -21 27 -15 12 5 12 7 1 14 -17 11 -28 11 -28 1z"/>
<path d="M8147 8724 c3 -7 9 -14 14 -14 14 0 10 17 -5 23 -10 4 -13 1 -9 -9z"/>
<path d="M8306 8668 c-10 -13 -16 -17 -16 -9 0 8 -3 12 -6 8 -3 -3 -1 -14 5
-24 6 -10 11 -14 11 -10 0 4 10 3 23 -3 21 -11 21 -10 3 4 -11 9 -15 16 -9 16
7 0 11 9 10 20 -2 25 -2 25 -21 -2z"/>
<path d="M8459 8658 c11 -15 11 -21 1 -33 -7 -8 -9 -15 -4 -15 4 0 3 -5 -4
-12 -8 -8 -15 -8 -28 3 -16 13 -16 12 -4 -7 7 -12 22 -27 34 -34 19 -12 20
-12 7 4 -24 28 1 40 33 15 20 -16 30 -19 39 -10 8 8 8 14 -2 24 -10 8 -12 8
-7 0 3 -6 2 -15 -4 -18 -6 -4 -10 -3 -9 2 1 4 1 15 0 23 -1 12 -3 12 -10 2 -7
-11 -9 -10 -14 3 -5 11 -3 14 6 9 7 -5 6 0 -3 12 -14 18 -14 18 4 4 16 -12 18
-12 11 -1 -5 10 -4 12 4 7 6 -4 9 -12 6 -17 -7 -10 8 -12 18 -2 11 10 57 13
57 2 0 -5 -3 -8 -7 -8 -20 3 -30 -2 -31 -16 -1 -8 -3 -22 -4 -30 -1 -8 -5 -12
-9 -10 -4 3 -17 -3 -30 -13 -17 -15 -19 -21 -9 -27 8 -5 11 -4 6 3 -6 10 31
38 44 34 3 -1 5 1 5 6 1 4 5 17 9 30 7 20 10 21 24 10 13 -11 14 -11 7 1 -5 9
-4 12 3 7 6 -4 8 -14 5 -24 -6 -14 -4 -15 9 -4 11 9 18 10 23 2 3 -6 12 -7 18
-3 8 4 7 1 -1 -9 -10 -13 -10 -18 -1 -24 8 -5 10 -3 5 7 -4 8 1 3 12 -11 11
-13 18 -29 15 -34 -3 -5 -1 -6 6 -2 6 4 9 11 6 16 -3 4 2 11 10 14 13 5 14 2
4 -15 -10 -19 -9 -20 10 -10 18 10 20 9 15 -6 -5 -17 -5 -16 6 0 11 18 12 18
33 0 20 -17 20 -17 14 0 -4 10 -7 21 -7 23 0 3 -5 2 -10 -1 -6 -3 -13 1 -16
10 -6 14 -8 14 -21 -2 -8 -10 -11 -12 -8 -5 7 13 -15 35 -40 43 -5 1 -18 11
-29 20 -10 10 -25 15 -34 12 -11 -5 -13 -3 -7 8 4 8 5 11 1 7 -4 -3 -16 2 -27
13 -15 15 -24 17 -38 10 -10 -6 -21 -8 -23 -5 -3 2 -15 7 -28 9 -12 2 -29 10
-39 17 -14 12 -15 11 -2 -4z m18 -43 c0 -8 -4 -12 -9 -9 -5 3 -6 10 -3 15 9
13 12 11 12 -6z m226 -65 c8 -8 8 -11 0 -6 -6 3 -13 2 -15 -4 -2 -6 -8 -2 -15
9 -10 16 -9 19 3 17 8 -1 20 -8 27 -16z"/>
<path d="M8362 8631 c-11 -7 -11 -9 0 -14 9 -3 15 1 15 9 0 8 -1 14 -1 14 -1
0 -7 -4 -14 -9z"/>
<path d="M8535 8611 c-3 -5 -2 -12 3 -15 5 -3 9 1 9 9 0 17 -3 19 -12 6z"/>
<path d="M8570 8581 c0 -5 6 -11 13 -14 9 -3 7 -9 -6 -24 -9 -11 -14 -23 -10
-27 5 -4 9 -16 9 -27 3 -36 4 -40 13 -34 5 3 12 1 15 -4 3 -5 16 -7 29 -4 16
3 18 2 9 -5 -11 -7 -11 -10 3 -15 9 -4 13 -3 10 2 -3 5 -1 12 4 15 5 4 13 2
16 -4 5 -8 11 -7 21 1 13 11 18 6 15 -15 -2 -11 32 -35 42 -29 4 3 20 -7 34
-21 20 -20 29 -24 40 -15 19 16 27 5 14 -19 -16 -29 -15 -30 32 -28 34 1 42
-2 41 -16 -1 -10 3 -16 10 -15 6 1 10 -4 8 -12 -3 -12 0 -12 12 -1 9 7 16 9
16 4 0 -5 4 -3 9 5 7 11 15 4 36 -28 19 -31 30 -40 38 -33 17 14 51 -10 35
-26 -8 -8 -6 -10 5 -8 29 4 29 14 2 32 -18 12 -23 20 -16 27 7 7 17 5 30 -7
15 -13 24 -15 39 -7 16 8 23 5 40 -19 17 -23 19 -30 8 -39 -7 -6 -17 -7 -21
-3 -5 4 1 -7 13 -24 15 -21 28 -30 44 -28 13 1 23 3 23 4 0 1 9 3 20 5 22 4
48 -13 40 -26 -3 -4 3 -13 14 -19 13 -7 22 -7 26 0 6 9 -8 14 -28 11 -4 -1 0
10 9 24 16 24 32 37 18 14 -5 -8 -1 -8 13 0 11 6 23 7 27 4 3 -3 6 -1 6 5 0 7
5 12 11 12 8 0 8 -5 -1 -15 -9 -10 -9 -15 -1 -16 6 -1 16 -3 21 -4 6 -1 15 -3
22 -4 7 0 3 -8 -8 -17 -18 -15 -18 -15 2 -5 12 6 24 7 28 4 3 -3 6 -1 6 5 0 6
-10 14 -21 17 -17 6 -19 9 -8 17 10 6 7 7 -10 3 -15 -5 -21 -4 -17 4 7 11 -51
47 -72 43 -7 -2 -11 3 -10 10 2 7 -7 14 -19 16 -13 2 -23 9 -23 15 0 7 -4 6
-10 -3 -8 -13 -10 -13 -10 1 0 16 -26 34 -42 31 -5 -1 -8 2 -8 8 0 6 -5 10
-11 10 -6 0 -17 7 -26 15 -8 8 -19 13 -24 10 -5 -4 -9 -1 -9 4 0 6 -6 11 -14
11 -7 0 -19 6 -26 14 -13 16 -44 10 -34 -6 4 -6 9 -6 14 2 5 9 9 9 14 1 4 -6
3 -11 -1 -11 -5 0 -14 -10 -22 -21 -11 -19 -11 -21 2 -16 8 3 20 0 27 -6 10
-10 10 -7 1 10 -8 16 -8 24 1 29 7 5 8 3 3 -6 -6 -10 -4 -12 8 -7 9 3 19 1 23
-5 5 -7 2 -8 -6 -3 -8 5 -11 4 -6 -3 3 -6 16 -9 27 -7 21 4 21 4 4 -15 -19
-21 -30 -27 -21 -11 3 5 -1 14 -9 21 -13 11 -14 10 -9 -4 6 -16 -6 -22 -20 -9
-3 4 -19 7 -35 8 -22 1 -28 -3 -26 -15 2 -9 -3 -17 -10 -17 -8 0 -11 5 -7 11
3 6 8 20 9 31 2 17 0 16 -12 -5 -13 -24 -14 -24 -12 -2 1 12 5 22 10 22 4 0 5
5 1 11 -4 8 -9 7 -16 -2 -8 -11 -9 -10 -5 3 6 18 -19 33 -28 18 -4 -6 -1 -10
4 -10 6 0 11 -5 11 -12 0 -6 -3 -8 -6 -5 -4 3 -16 2 -28 -4 -20 -9 -20 -9 -3
4 11 9 14 18 8 21 -5 4 -15 -2 -21 -11 -10 -16 -11 -16 -6 -1 3 10 1 20 -5 24
-6 3 -8 13 -5 23 4 9 -3 5 -14 -9 -16 -20 -19 -21 -13 -5 6 17 4 18 -9 8 -8
-7 -19 -9 -23 -5 -5 4 -5 2 -2 -4 3 -6 0 -11 -8 -11 -12 0 -12 4 2 20 10 10
17 22 17 26 -1 3 2 5 7 4 5 -2 9 2 9 8 0 6 -7 8 -16 5 -10 -4 -13 -2 -8 7 5 8
2 7 -9 -2 -13 -10 -20 -11 -31 -2 -10 8 -16 9 -21 1 -3 -6 -11 -8 -16 -4 -5 3
-7 10 -4 15 4 5 1 9 -5 9 -7 0 -10 7 -6 18 4 10 -2 7 -14 -8 -15 -19 -19 -20
-13 -6 5 15 3 18 -10 13 -14 -5 -16 -3 -8 12 9 15 7 18 -14 16 -13 -2 -26 3
-29 11 -4 11 -2 12 14 4 24 -13 33 -13 25 0 -3 6 1 7 10 4 9 -4 14 -13 11 -21
-4 -9 -2 -11 6 -7 7 5 8 3 3 -6 -6 -9 -4 -11 4 -6 7 5 10 14 7 22 -3 7 0 16 6
20 7 5 8 2 3 -6 -5 -8 -4 -11 3 -6 6 4 9 -3 8 -19 -2 -13 1 -22 6 -19 5 3 7
12 4 19 -3 8 2 19 10 25 13 12 19 7 15 -14 -1 -5 5 -4 13 4 11 8 16 9 17 1 4
-29 19 -61 30 -61 5 0 3 14 -6 30 -19 38 -11 40 9 3 8 -16 15 -22 16 -14 0 11
4 10 16 -5 8 -10 12 -13 9 -6 -5 10 1 9 24 -3 18 -9 29 -20 26 -25 -4 -6 -2
-10 4 -10 5 0 12 6 15 13 3 6 3 1 0 -12 -5 -20 -3 -23 10 -18 12 5 15 3 10 -6
-5 -7 0 -6 12 3 18 14 18 14 4 -4 -12 -16 -12 -18 -1 -11 10 6 12 4 6 -6 -7
-11 -5 -11 10 1 10 8 20 14 22 12 3 -2 7 -1 11 2 3 3 0 6 -7 6 -7 0 -19 7 -28
15 -8 8 -19 13 -24 10 -5 -4 -9 -1 -9 5 0 6 -13 16 -30 21 -16 6 -30 15 -30
20 0 5 -3 8 -7 8 -22 -4 -33 2 -27 14 5 8 2 8 -9 -2 -14 -11 -17 -11 -17 1 0
7 -17 22 -37 33 -21 11 -41 24 -44 28 -3 5 -9 1 -13 -9 -6 -16 -8 -16 -25 0
-17 15 -19 15 -25 1 -4 -10 -11 -13 -18 -8 -7 4 -22 8 -33 8 -11 0 -20 5 -20
12 0 7 -9 19 -20 27 -11 8 -21 19 -21 25 -3 22 -4 23 -19 11 -12 -10 -16 -9
-21 4 -7 17 -24 22 -24 7z m55 -20 c-3 -5 -1 -12 5 -16 6 -4 8 -11 5 -16 -6
-9 9 -14 30 -9 6 1 7 -2 3 -6 -4 -4 -3 -13 3 -21 6 -7 8 -13 5 -13 -4 0 -2
-10 4 -22 10 -21 10 -21 -3 -5 -16 19 -32 24 -21 6 4 -8 0 -8 -15 0 -16 9 -21
9 -21 0 0 -7 -9 -2 -20 11 -23 26 -26 35 -8 24 8 -5 9 -2 5 10 -4 10 -7 20 -7
22 0 3 -6 2 -12 -1 -7 -4 1 5 17 19 32 28 40 32 30 17z m199 -192 c-3 -5 -10
-7 -15 -3 -5 3 -7 10 -3 15 3 5 10 7 15 3 5 -3 7 -10 3 -15z m409 -124 c5 0
15 -9 23 -19 13 -18 29 -25 61 -28 7 -1 11 -6 10 -12 -1 -6 5 -11 13 -11 8 -1
24 -6 35 -13 15 -8 16 -12 5 -13 -46 -6 -71 -19 -63 -33 4 -6 -1 -5 -10 3 -13
11 -15 17 -6 28 19 22 5 25 -18 3 -14 -12 -23 -15 -25 -8 -5 15 -39 19 -54 7
-8 -6 -14 -6 -18 -1 -3 6 1 15 9 22 12 10 11 16 -10 44 -18 24 -22 35 -13 44
8 8 16 8 32 -1 12 -6 25 -11 29 -12z m-109 -14 c-2 -3 -12 3 -22 13 -16 17
-16 18 5 5 12 -7 20 -15 17 -18z m106 -92 c0 -5 6 -7 13 -3 6 4 9 3 4 -1 -13
-15 -46 -13 -40 2 6 16 23 17 23 2z"/>
<path d="M8600 8540 c-9 -6 -10 -10 -3 -10 6 0 10 -11 8 -25 -1 -14 2 -28 8
-32 6 -3 7 -1 3 5 -4 7 -5 12 -2 12 2 0 13 3 23 6 15 5 15 4 3 -5 -8 -5 -11
-14 -6 -18 5 -4 11 -2 13 5 3 6 10 10 16 6 7 -3 1 4 -13 16 -14 12 -25 26 -25
30 0 15 -10 19 -25 10z"/>
<path d="M9176 8252 c-8 -13 39 -66 52 -58 6 4 8 14 5 24 -3 9 -3 14 1 11 10
-9 16 -50 7 -44 -5 3 -17 -3 -28 -13 -10 -9 -14 -14 -8 -10 12 8 35 6 51 -4 6
-4 20 -1 30 6 27 20 52 0 27 -21 -16 -13 -16 -13 5 -3 23 11 23 13 6 31 -9 10
-21 16 -25 13 -5 -3 -9 0 -9 6 0 6 -4 9 -9 5 -5 -3 -17 5 -26 17 -8 13 -19 23
-23 23 -4 1 -17 6 -29 13 -12 7 -24 8 -27 4z m40 -37 c1 -9 1 -15 -1 -13 -2 1
-3 6 -2 10 1 4 -7 14 -18 23 -18 15 -19 16 -1 7 11 -5 21 -17 22 -27z m64 -43
c-21 -7 -23 -6 -26 10 -2 14 1 15 17 5 11 -7 15 -13 9 -15z"/>
<path d="M9350 8160 c0 -5 5 -10 11 -10 5 0 7 5 4 10 -3 6 -8 10 -11 10 -2 0
-4 -4 -4 -10z"/>
<path d="M8809 8463 c-2 -12 -6 -28 -8 -33 -2 -3 -4 -13 -6 -23 -3 -13 0 -15
9 -8 9 7 16 7 25 -2 9 -9 14 -9 21 3 10 16 4 30 -12 30 -6 0 -7 -8 -3 -17 5
-15 4 -16 -7 -5 -11 11 -9 16 7 28 l20 16 -20 -4 c-12 -2 -19 2 -17 10 1 6 0
12 -3 12 -3 0 -6 -3 -6 -7z"/>
<path d="M8899 8403 c-1 -4 -2 -15 -3 -23 0 -8 -6 -14 -12 -13 -6 1 -11 -5
-11 -12 0 -11 4 -12 14 -4 7 6 13 8 13 4 0 -4 7 -2 15 5 12 10 19 10 27 2 9
-9 9 -12 -1 -12 -17 0 -8 -25 10 -26 8 0 20 4 26 9 9 6 24 -2 48 -26 28 -28
37 -32 46 -21 15 18 -8 51 -24 35 -12 -12 -90 46 -81 60 3 5 -2 10 -10 10 -25
2 -30 4 -43 12 -7 5 -14 5 -14 0z m76 -62 c-3 -3 -13 -6 -22 -7 -11 -2 -13 0
-4 9 8 8 6 16 -7 31 -12 15 -9 14 11 -3 15 -14 25 -27 22 -30z m94 -44 c0 -9
-2 -8 -6 1 -2 6 -10 9 -15 6 -7 -4 -8 -2 -4 5 9 13 26 5 25 -12z"/>
<path d="M9351 8115 l-24 -12 32 -11 c33 -12 44 -28 12 -17 -11 3 -22 1 -25
-4 -4 -6 -14 -8 -24 -5 -15 5 -15 4 1 -6 10 -6 14 -16 10 -23 -4 -7 -1 -7 10
1 19 16 43 6 28 -12 -5 -6 -7 -16 -3 -21 13 -18 31 -15 43 8 11 19 11 21 -3 9
-13 -10 -18 -10 -24 -1 -5 8 -3 9 6 4 7 -5 11 -4 7 1 -3 5 1 18 9 29 8 10 14
13 14 7 0 -10 5 -10 20 -2 11 6 20 8 20 5 0 -3 8 -2 17 3 12 7 24 5 39 -5 13
-8 28 -12 33 -9 5 4 13 1 17 -5 5 -8 3 -9 -7 -4 -12 8 -12 6 0 -8 10 -12 10
-21 3 -30 -7 -8 -8 -18 -1 -27 8 -12 9 -11 7 5 -2 11 2 19 9 18 7 -2 10 3 7
11 -3 8 -1 17 5 21 7 4 8 0 4 -11 -5 -13 -2 -16 9 -12 11 5 15 0 14 -15 -1
-14 4 -21 14 -19 8 2 20 -5 27 -14 7 -10 13 -14 14 -8 0 5 2 17 4 27 2 9 -5
22 -16 27 -10 6 -19 8 -19 5 0 -3 -10 3 -22 14 -11 11 -25 18 -29 15 -4 -2
-11 1 -16 8 -4 7 -19 19 -32 26 -12 8 -20 9 -16 3 3 -6 2 -11 -4 -11 -5 0 -13
9 -16 20 -3 11 -11 20 -16 20 -6 0 -7 -4 -4 -10 6 -9 -8 -14 -27 -11 -5 0 -8
-3 -8 -8 0 -8 -8 -8 -39 -2 -2 1 3 9 10 19 7 9 9 14 4 9 -4 -4 -18 -1 -30 7
-17 11 -25 12 -44 1z m52 -18 c8 7 1 -33 -8 -48 -5 -7 -11 -6 -20 1 -8 7 -20
8 -27 4 -10 -5 -10 -4 -1 6 9 10 15 10 26 1 11 -9 16 -9 20 2 7 18 -15 45 -33
40 -13 -4 -13 -3 0 6 11 8 18 7 26 -4 6 -8 14 -12 17 -8z m247 -99 c0 -5 4 -7
8 -4 5 3 9 -1 9 -9 0 -11 -4 -12 -13 -4 -7 6 -17 8 -22 5 -5 -3 -9 1 -9 8 0 7
6 13 14 13 7 0 13 -4 13 -9z"/>
<path d="M9487 8064 c-4 -4 -23 -9 -64 -18 -7 -1 -16 -6 -20 -10 -4 -4 -1 -6
7 -4 10 2 14 -6 15 -27 0 -16 6 -31 13 -31 7 -1 14 -3 17 -4 3 -1 8 -3 13 -4
19 -4 32 -19 28 -34 -9 -29 8 -44 23 -20 11 18 11 20 -3 15 -10 -4 -13 -1 -9
9 4 12 8 12 21 2 13 -11 14 -10 10 2 -3 8 -12 15 -20 14 -8 -1 -15 4 -15 10 0
7 8 12 18 12 10 0 15 -5 12 -10 -4 -5 -1 -6 7 -1 8 5 11 4 7 -2 -4 -6 0 -19 8
-29 13 -19 13 -18 12 1 -1 11 3 19 11 18 6 -2 12 2 12 7 0 6 4 10 9 10 11 0 9
-19 -3 -39 -6 -9 -5 -12 5 -9 8 3 14 12 13 20 -1 8 4 15 11 15 7 0 11 -6 8
-13 -2 -6 0 -15 6 -19 7 -4 8 1 5 12 -6 15 -4 15 10 -2 16 -19 16 -19 5 8 -7
15 -17 26 -23 25 -6 0 -19 2 -29 7 -15 6 -16 10 -5 16 9 6 6 8 -9 7 -11 -1
-19 -7 -16 -14 8 -21 -13 -24 -30 -3 -15 17 -15 20 -2 25 8 4 15 10 15 14 0
10 -67 50 -73 44z m43 -56 c-14 -12 -17 -18 -8 -22 7 -3 2 -3 -11 0 -20 5 -23
3 -17 -12 6 -18 5 -18 -8 -1 -8 10 -16 14 -17 8 -2 -5 -13 2 -23 17 -11 14
-14 22 -8 18 7 -4 12 -2 12 3 0 6 -5 11 -12 11 -18 0 -3 10 22 15 12 2 25 6
27 9 3 2 18 -3 34 -12 29 -17 29 -17 9 -34z"/>
<path d="M9480 8040 c-8 -5 -17 -7 -20 -5 -4 2 -6 -6 -5 -18 1 -12 8 -21 16
-21 24 3 59 16 59 23 0 13 -37 29 -50 21z m21 -23 c-10 -10 -41 -19 -41 -12 0
11 33 34 42 29 6 -4 6 -10 -1 -17z"/>
<path d="M9684 7969 c-5 -13 -9 -30 -9 -38 0 -16 -32 -24 -41 -10 -3 6 -11 6
-17 1 -17 -12 -55 -13 -63 -1 -6 10 -34 -7 -34 -20 0 -4 14 -18 31 -30 18 -13
29 -19 25 -13 -3 6 3 14 15 17 20 7 20 7 2 21 -16 14 -16 14 6 4 19 -10 26 -9
33 1 7 10 8 9 4 -6 -6 -20 -6 -20 9 -1 9 12 15 15 15 7 0 -10 3 -11 13 -2 8 6
16 9 18 7 2 -2 5 7 6 21 1 20 -1 23 -9 12 -7 -10 -9 -11 -6 -1 2 8 7 13 12 12
5 -1 13 4 18 12 6 9 7 6 3 -9 -3 -12 -1 -24 5 -28 5 -3 10 0 10 7 1 8 5 7 14
-5 8 -10 20 -16 27 -15 7 2 13 -3 14 -11 0 -8 6 -16 13 -19 8 -2 10 2 5 15 -4
11 2 7 16 -9 l22 -27 -22 -31 c-26 -34 -31 -37 -23 -12 5 14 4 14 -4 2 -12
-16 -6 -33 9 -25 5 3 6 -2 3 -12 -6 -15 -4 -15 10 2 l16 20 -6 -20 c-5 -16 -4
-17 5 -5 15 21 13 33 -4 26 -13 -4 -13 -2 -5 14 5 10 16 22 23 26 7 5 6 0 -3
-12 -14 -18 -14 -18 3 -5 9 7 17 10 17 7 0 -4 9 -2 19 3 16 9 18 8 13 -11 -4
-15 -2 -19 7 -14 7 5 10 11 7 14 -3 3 0 12 6 21 7 9 9 13 4 9 -4 -3 -21 5 -37
20 -16 14 -37 27 -45 28 -9 2 -27 13 -40 25 -13 12 -24 19 -24 15 0 -5 -7 -3
-15 4 -8 7 -15 9 -15 4 0 -4 -7 1 -15 12 -8 10 -15 15 -15 9 0 -5 -4 -4 -9 4
-7 11 -11 8 -17 -10z m88 -34 c3 3 11 -3 19 -12 12 -16 12 -17 -2 -6 -9 7 -18
11 -21 8 -3 -3 -11 3 -19 12 -12 16 -12 17 2 6 9 -7 18 -11 21 -8z m-198 -56
c-3 -5 -10 -7 -15 -3 -5 3 -7 9 -4 14 3 5 1 11 -5 15 -5 3 -10 1 -10 -6 0 -7
-3 -10 -6 -6 -3 3 -3 11 1 17 5 8 13 6 26 -6 10 -9 16 -21 13 -25z m296 -4
c17 -18 18 -24 7 -28 -8 -3 -23 6 -35 22 -25 35 -3 39 28 6z"/>
<path d="M9851 7873 c7 -12 15 -20 18 -17 3 2 -3 12 -13 22 -17 16 -18 16 -5
-5z"/>
<path d="M9570 7938 c0 -4 4 -8 9 -8 6 0 12 4 15 8 3 5 -1 9 -9 9 -8 0 -15 -4
-15 -9z"/>
<path d="M9704 7913 c0 -10 -5 -18 -11 -19 -7 -1 -15 -3 -18 -4 -3 -1 -9 -4
-15 -5 -5 -1 -13 -4 -17 -5 -11 -3 -26 -7 -39 -8 -6 -1 -11 -9 -11 -17 0 -8 4
-12 8 -9 4 2 10 -2 12 -8 4 -10 6 -10 6 0 1 6 5 12 11 12 5 0 7 -6 4 -14 -6
-15 29 -40 40 -29 3 3 6 1 6 -5 0 -7 7 -12 15 -12 8 0 15 -5 15 -11 0 -5 5 -7
10 -4 6 3 13 -1 16 -9 3 -9 12 -16 19 -16 7 0 16 -6 18 -12 4 -9 6 -9 6 1 1
11 5 10 15 -5 8 -10 18 -19 23 -19 4 -1 27 -13 50 -28 49 -31 60 -33 60 -12 0
8 -4 15 -9 15 -5 0 -6 5 -2 11 5 8 9 8 14 -1 5 -8 9 -7 13 5 4 10 3 14 -4 9
-6 -3 -3 5 6 20 20 30 27 33 19 9 -5 -15 -4 -15 4 -4 12 16 55 23 45 8 -3 -6
-1 -7 5 -3 5 3 12 3 15 -1 2 -5 3 -3 1 3 -1 5 9 10 21 10 13 0 21 -4 19 -8 -3
-4 0 -8 6 -8 6 0 8 -5 5 -11 -5 -6 -12 -4 -21 8 -7 10 -14 13 -14 6 0 -6 5
-15 10 -18 7 -4 6 -13 -1 -27 -8 -16 -8 -19 1 -13 7 4 4 -4 -5 -19 -20 -30
-27 -33 -19 -8 5 13 4 14 -4 3 -12 -16 -62 -24 -62 -10 0 6 -6 7 -12 3 -9 -5
-9 -2 1 9 8 11 9 17 3 17 -6 0 -16 -10 -23 -21 -8 -15 -8 -19 0 -15 6 4 11 2
11 -4 0 -6 4 -9 9 -6 5 3 12 -1 15 -10 3 -8 10 -13 15 -10 4 3 17 -4 27 -15
10 -11 23 -18 30 -15 7 3 15 -2 18 -11 4 -9 9 -13 12 -10 4 3 13 -1 21 -9 8
-8 19 -12 24 -9 5 4 9 -1 9 -10 0 -11 5 -15 15 -11 8 3 15 2 15 -2 0 -4 14
-16 30 -25 17 -10 30 -15 30 -11 0 4 8 -3 19 -15 15 -18 20 -19 25 -6 3 8 11
15 18 15 8 0 9 -3 3 -8 -13 -9 -19 -35 -6 -28 5 4 11 2 13 -3 1 -5 12 -3 22 5
14 10 16 14 5 14 -12 0 -12 2 1 10 13 9 13 10 0 10 -13 0 -13 2 0 11 13 9 12
10 -3 5 -12 -4 -16 -2 -11 6 4 7 3 8 -5 4 -6 -4 -8 -12 -5 -18 4 -7 0 -7 -13
1 -14 7 -24 7 -33 -2 -10 -8 -10 -6 0 7 8 11 10 17 3 13 -6 -4 -14 -3 -18 3
-4 6 -11 7 -17 4 -7 -5 -9 -1 -5 9 3 9 1 19 -5 23 -7 5 -8 2 -3 -6 6 -9 4 -11
-5 -5 -8 5 -11 4 -6 -3 3 -6 -1 -9 -10 -8 -8 1 -19 8 -24 15 -5 10 -9 10 -13
2 -3 -7 -4 -7 -2 1 1 7 7 12 12 11 5 -1 15 8 23 20 11 19 11 20 -1 11 -17 -14
-49 -14 -49 0 0 5 -7 1 -16 -10 -15 -18 -15 -18 -4 3 9 19 8 22 -5 17 -8 -4
-15 -2 -15 3 0 12 -31 13 -45 2 -7 -5 -11 0 -12 14 0 12 1 16 4 9 4 -10 9 -9
20 5 8 10 12 12 8 6 -4 -9 -1 -11 9 -7 9 3 13 10 10 16 -3 5 -12 7 -20 4 -11
-4 -12 -1 -4 13 11 22 37 22 52 0 8 -11 9 -9 4 6 -6 19 -6 19 9 1 8 -10 12
-22 10 -26 -2 -4 2 -7 10 -7 8 0 11 5 8 10 -4 6 -1 7 7 2 9 -5 11 -4 6 4 -4 6
-11 9 -15 7 -4 -3 -13 5 -20 17 -11 18 -11 20 0 10 14 -14 48 -19 35 -5 -4 4
-13 7 -19 7 -7 0 -12 10 -12 22 0 13 -6 28 -13 35 -8 8 -12 8 -12 1 0 -6 5
-13 12 -15 7 -3 5 -7 -6 -11 -11 -5 -15 -3 -10 5 4 6 3 8 -3 5 -6 -4 -10 1 -9
10 0 9 -9 22 -20 28 -12 6 -29 17 -38 24 -9 7 -16 10 -16 7 0 -4 -7 0 -16 8
-8 9 -19 14 -24 11 -4 -3 -11 2 -14 11 -3 8 -10 12 -16 9 -5 -3 -10 -2 -10 4
0 6 -7 8 -15 5 -8 -4 -13 -10 -10 -14 3 -4 -2 -13 -10 -20 -12 -10 -16 -9 -21
3 -10 26 -39 13 -38 -16 1 -24 -6 -32 -28 -28 -10 1 -10 -13 -1 -22 3 -4 13
-1 21 6 9 6 13 7 9 1 -3 -6 0 -11 8 -11 11 0 12 4 4 14 -9 9 -8 13 0 13 7 0
11 6 9 13 -2 7 1 12 7 12 5 0 8 -7 7 -14 -3 -12 -1 -12 11 -3 7 6 17 9 20 6 4
-4 17 0 31 9 26 18 37 13 29 -11 -4 -13 -1 -12 11 3 10 11 14 14 10 6 -5 -10
-3 -12 7 -6 10 6 11 5 3 -4 -6 -6 -20 -13 -32 -16 -16 -3 -20 0 -16 13 5 16 5
16 -6 0 -6 -10 -17 -15 -27 -11 -11 4 -14 3 -9 -6 5 -7 14 -10 22 -7 12 4 12
2 4 -14 -6 -11 -13 -20 -16 -20 -3 0 -2 5 2 12 5 7 3 8 -6 3 -9 -6 -11 -4 -5
6 6 11 5 11 -5 2 -7 -6 -20 -9 -29 -6 -12 4 -10 1 4 -11 11 -10 14 -15 8 -11
-9 4 -11 1 -7 -9 7 -18 -11 -22 -22 -4 -4 7 -3 8 4 4 8 -5 10 -2 6 9 -5 13 -9
13 -22 3 -13 -11 -14 -11 -7 1 6 10 4 12 -5 6 -8 -5 -11 -4 -6 3 4 7 -1 10
-14 7 -11 -2 -18 0 -15 6 4 5 1 9 -6 9 -7 0 -9 3 -6 6 3 4 1 16 -5 28 -22 38
-18 52 14 48 3 -1 11 5 18 13 13 16 4 39 -11 29 -13 -8 -40 16 -32 29 3 6 1 7
-6 3 -6 -4 -18 -2 -26 4 -8 7 -15 9 -15 5 0 -4 -6 -2 -14 4 -11 9 -14 8 -12
-6z m86 -53 c0 -5 -10 -16 -22 -24 -16 -11 -18 -16 -8 -17 11 0 11 -2 3 -6
-17 -6 -16 -23 1 -23 17 0 29 -27 16 -35 -6 -3 -21 5 -34 18 -14 14 -27 22
-30 19 -3 -3 -6 0 -6 7 0 7 -4 10 -9 6 -5 -3 -12 -1 -16 5 -4 6 -10 8 -15 5
-4 -3 -12 1 -17 8 -13 17 -10 52 5 53 6 1 14 2 17 3 3 0 7 0 8 -1 2 -2 12 4
22 12 14 11 17 12 11 1 -6 -9 -5 -12 5 -9 8 3 13 11 11 18 -1 6 11 2 28 -10
16 -12 30 -25 30 -30z m-160 6 c0 -3 -4 -8 -10 -11 -5 -3 -10 -1 -10 4 0 6 5
11 10 11 6 0 10 -2 10 -4z m181 -19 c-10 -9 -11 -8 -5 6 3 10 9 15 12 12 3 -3
0 -11 -7 -18z m130 -41 c-11 -11 -23 -17 -27 -13 -10 9 13 34 31 34 13 0 12
-4 -4 -21z m97 -29 c9 -10 6 -13 -13 -13 -19 0 -22 3 -13 13 6 7 12 13 13 13
1 0 7 -6 13 -13z m-123 -56 c3 -5 2 -12 -3 -15 -5 -3 -9 1 -9 9 0 17 3 19 12
6z m198 -21 c3 6 4 5 3 -2 -2 -7 -12 -11 -22 -10 -25 5 -28 8 -18 23 5 9 10 8
20 -5 7 -11 14 -13 17 -6z m-203 -20 c0 -5 -2 -10 -4 -10 -3 0 -8 5 -11 10 -3
6 -1 10 4 10 6 0 11 -4 11 -10z m116 -62 c0 -15 -2 -16 -16 -3 -9 8 -20 12
-25 8 -4 -5 -6 -3 -2 2 10 18 43 12 43 -7z m74 -42 c0 -10 -30 0 -34 11 -4 11
-1 11 14 3 11 -6 20 -12 20 -14z m45 -15 c-9 -8 -36 -10 -30 -2 2 4 11 8 20 8
8 0 13 -3 10 -6z m80 -61 c6 -1 12 -3 14 -6 2 -2 -7 -1 -19 1 -13 3 -28 10
-34 16 -8 9 -6 9 9 1 11 -5 25 -11 30 -12z m82 -35 c0 -8 -4 -15 -9 -15 -10 0
-11 14 -1 23 9 10 10 9 10 -8z"/>
<path d="M9735 7880 c-3 -6 -17 -8 -31 -6 -16 3 -27 0 -31 -10 -5 -13 -7 -13
-14 -2 -6 9 -8 5 -6 -12 2 -14 9 -26 15 -26 7 -1 13 -2 15 -4 1 -1 9 -3 17 -5
8 -1 22 -4 30 -6 8 -2 14 1 13 8 -2 7 6 17 17 23 25 13 25 26 1 40 -13 7 -22
7 -26 0z m35 -20 c0 -10 -31 -24 -49 -21 -7 1 -10 -2 -7 -7 5 -9 -14 -9 -34
-2 -3 1 -8 2 -13 1 -4 -1 -2 8 5 19 9 14 14 16 20 7 6 -9 8 -8 8 3 0 13 1 13
10 0 9 -13 12 -13 20 2 10 16 40 15 40 -2z"/>
<path d="M9736 7853 c-6 -14 -5 -15 5 -6 7 7 10 15 7 18 -3 3 -9 -2 -12 -12z"/>
<path d="M9686 7838 c3 -5 10 -6 15 -3 13 9 11 12 -6 12 -8 0 -12 -4 -9 -9z"/>
<path d="M9740 7786 c0 -3 9 -10 20 -16 11 -6 20 -8 20 -6 0 3 -9 10 -20 16
-11 6 -20 8 -20 6z"/>
<path d="M9895 7770 c-4 -6 -11 -8 -16 -5 -5 4 -9 1 -9 -4 0 -19 34 -13 36 7
3 15 -3 16 -11 2z"/>
<path d="M9984 7741 c7 -10 -7 -16 -29 -11 -5 1 -7 -2 -2 -6 4 -4 0 -19 -10
-33 -15 -24 -15 -25 0 -12 18 14 32 9 32 -12 0 -5 10 -11 22 -12 12 -1 20 2
17 7 -5 7 8 12 27 10 3 -1 6 4 6 11 0 7 2 17 4 22 2 6 1 11 -4 12 -4 2 -21 10
-38 19 -17 8 -28 11 -25 5z m16 -21 c-8 -5 -10 -10 -4 -10 23 0 23 -30 1 -41
-12 -7 -19 -8 -14 -4 4 5 -1 18 -10 29 -17 20 -17 20 1 6 18 -14 19 -13 14 2
-7 17 -1 28 16 28 6 0 4 -5 -4 -10z m43 -17 c-3 -7 -6 -13 -8 -13 -2 0 -5 6
-8 13 -3 8 1 14 8 14 7 0 11 -6 8 -14z"/>
<path d="M10145 7709 c-4 -6 -4 -13 -1 -16 3 -4 6 0 6 8 1 19 24 -21 25 -44 1
-9 -3 -21 -9 -25 -16 -12 -41 -8 -38 6 1 7 -1 11 -5 11 -19 -3 -34 2 -29 9 3
5 -1 9 -9 9 -12 0 -12 -3 -2 -15 6 -8 12 -22 12 -31 0 -9 5 -16 10 -16 6 -1
20 -6 33 -13 23 -13 47 -8 37 9 -4 5 -1 9 4 9 6 0 11 -4 11 -10 0 -5 4 -10 8
-10 5 0 9 7 9 15 0 8 -3 12 -7 10 -3 -2 -12 1 -20 7 -13 8 -12 9 2 5 23 -8 31
4 11 18 -15 11 -15 13 5 24 18 10 20 9 17 -9 -3 -13 0 -18 7 -14 7 4 8 3 4 -4
-5 -8 -2 -10 8 -6 10 4 18 -1 22 -11 6 -13 9 -14 16 -3 7 9 8 8 4 -5 -4 -12
-2 -17 6 -14 7 2 12 11 10 18 -2 8 0 10 5 6 4 -5 8 -14 8 -20 0 -7 9 -11 20
-10 20 2 20 1 0 -14 -14 -11 -15 -14 -3 -10 22 8 30 -3 16 -22 -7 -9 1 -5 16
9 16 14 26 20 22 13 -3 -6 -2 -14 4 -18 5 -3 10 -1 10 4 0 6 5 11 12 11 6 0 4
-8 -6 -19 -10 -11 -26 -18 -37 -16 -11 2 -18 1 -15 -3 2 -4 -9 -7 -24 -7 -16
-1 -26 3 -23 9 4 5 1 6 -7 1 -9 -6 -11 -4 -5 6 7 11 6 12 -7 2 -8 -7 -18 -9
-22 -5 -4 4 -13 7 -19 7 -7 0 -13 6 -13 13 -1 6 -2 17 -3 22 -1 7 -8 7 -21 0
-11 -6 -18 -15 -15 -21 4 -5 1 -9 -4 -9 -6 0 -11 -5 -11 -11 0 -8 5 -8 15 1 8
7 12 16 9 21 -3 5 -1 9 3 9 5 0 17 -14 27 -31 10 -17 20 -28 24 -25 3 3 11 1
19 -5 9 -8 17 -8 26 -1 8 7 18 7 27 2 8 -5 18 -6 22 -4 4 3 8 0 8 -5 0 -6 -4
-11 -9 -11 -6 0 -8 -9 -6 -20 2 -12 -2 -23 -10 -27 -23 -8 -18 -20 10 -27 14
-4 25 -11 25 -16 0 -6 6 -10 14 -10 7 0 19 -7 26 -15 7 -8 16 -12 21 -9 5 3 9
0 9 -6 0 -6 4 -9 9 -5 6 3 14 -3 20 -12 6 -10 11 -14 11 -9 0 5 11 -1 25 -14
14 -13 25 -21 25 -17 0 4 19 -7 42 -22 30 -21 45 -26 50 -18 7 12 9 10 12 -15
0 -6 9 -12 18 -14 10 -1 25 -9 34 -18 8 -9 20 -14 25 -11 5 4 9 2 9 -4 0 -5
22 -20 50 -34 27 -13 47 -27 45 -31 -3 -3 -2 -4 2 -1 3 3 14 -2 24 -11 9 -8
24 -17 32 -18 9 -1 27 -11 41 -21 15 -11 28 -18 31 -15 2 3 11 -4 19 -15 13
-18 15 -19 21 -3 6 16 9 16 22 2 12 -11 18 -12 29 -3 8 7 12 14 9 17 -3 3 1
12 8 20 10 13 9 15 -6 9 -10 -4 -21 -7 -24 -7 -3 0 0 -6 6 -13 8 -10 7 -14 -4
-14 -8 0 -11 5 -8 10 4 6 1 7 -7 2 -9 -6 -11 -4 -5 6 6 11 5 12 -6 2 -7 -7
-20 -13 -29 -13 -12 0 -12 2 -1 9 11 7 11 10 0 15 -8 3 -3 3 10 0 20 -5 23 -3
17 12 -6 18 -5 18 8 1 12 -15 14 -15 19 -3 4 9 2 18 -3 21 -6 4 -10 11 -10 18
0 6 6 2 14 -8 8 -11 12 -23 10 -27 -3 -4 2 -5 10 -2 9 3 16 10 16 16 0 5 6 6
13 2 6 -4 9 -4 5 1 -4 4 -4 13 2 20 7 8 -2 11 -32 10 -23 -1 -44 -7 -46 -14
-3 -8 -8 -7 -17 6 -14 19 -2 59 14 48 5 -2 15 3 22 12 10 12 10 14 2 9 -7 -4
-13 -2 -13 3 0 6 -7 11 -15 11 -8 0 -15 4 -15 8 0 11 -56 43 -64 35 -3 -3 -6
-1 -6 5 0 7 -7 12 -15 12 -8 0 -15 6 -15 13 0 8 -4 7 -10 -3 -8 -13 -10 -13
-10 2 0 15 -34 35 -52 30 -5 -1 -8 4 -8 12 0 8 -13 17 -30 21 -16 4 -30 10
-30 14 0 8 -47 34 -63 35 -4 1 -12 8 -17 16 -5 8 -10 11 -10 5 0 -5 -5 -2 -10
7 -7 11 -19 15 -36 12 -20 -4 -25 -1 -21 10 6 16 -26 32 -52 27 -7 -1 -10 2
-7 7 3 5 -7 15 -22 22 -15 8 -40 24 -57 35 -33 24 -66 39 -77 37 -5 -1 -8 2
-8 6 0 5 -20 18 -44 31 -25 12 -47 27 -49 34 -4 9 -6 9 -6 0 -1 -20 -18 -15
-24 7 -4 14 -10 18 -23 13 -12 -4 -15 -3 -10 5 5 8 2 10 -8 6 -11 -4 -16 0
-16 10 0 18 -15 21 -25 5z m0 -91 c5 4 5 1 1 -6 -6 -9 -11 -10 -20 -3 -7 6
-17 7 -21 3 -5 -4 -5 -1 -1 6 6 9 11 10 20 3 7 -6 17 -7 21 -3z m225 -34 c0
-8 -19 -13 -24 -6 -3 5 1 9 9 9 8 0 15 -2 15 -3z m70 -49 c0 4 8 1 18 -8 10
-10 21 -14 25 -11 3 4 12 -5 18 -20 10 -22 15 -24 27 -13 13 10 14 9 7 -2 -6
-11 -4 -13 9 -8 9 4 15 3 12 -2 -9 -14 18 -31 43 -26 12 2 19 0 17 -4 -5 -8
32 -30 45 -27 13 2 38 -27 32 -37 -4 -6 0 -8 10 -4 8 3 21 -1 27 -8 7 -8 16
-13 20 -10 5 3 16 -3 26 -12 9 -9 24 -18 32 -20 9 -1 24 -12 34 -25 10 -13 18
-19 18 -15 0 4 10 2 23 -5 12 -7 25 -11 29 -10 4 1 4 -6 1 -16 -6 -14 -4 -15
9 -4 14 11 19 9 36 -13 12 -14 24 -26 29 -26 4 -1 10 -3 13 -6 3 -4 0 -3 -6 0
-6 4 -19 -2 -29 -13 -14 -15 -15 -23 -6 -34 20 -24 21 -54 3 -52 -9 0 -17 -5
-18 -11 -3 -27 -5 -27 -24 -4 -11 13 -20 20 -20 16 0 -4 -6 -2 -13 4 -8 6 -18
7 -22 3 -5 -4 -4 -1 0 7 6 10 4 13 -7 9 -19 -8 -51 28 -41 45 5 8 2 8 -9 -1
-11 -9 -18 -10 -23 -2 -3 6 -11 7 -17 4 -7 -5 -8 -2 -3 6 6 10 4 12 -7 7 -9
-3 -24 3 -34 14 -9 10 -19 17 -22 14 -3 -2 -22 11 -44 30 -22 18 -46 31 -54
28 -8 -3 -14 0 -14 7 0 6 -4 9 -9 6 -5 -3 -20 4 -35 15 -14 11 -26 17 -26 13
0 -4 -9 1 -20 11 -11 10 -17 22 -13 28 4 6 0 8 -8 5 -17 -7 -56 18 -45 29 4 4
11 2 15 -6 7 -10 9 -9 14 3 9 24 -10 29 -31 8 -19 -19 -20 -19 -33 -1 -7 10
-16 16 -21 13 -4 -3 -11 2 -14 10 -3 9 -10 14 -14 11 -5 -3 -11 -1 -14 4 -4 5
-2 12 4 16 6 4 7 12 3 18 -4 7 0 6 10 -2 10 -8 17 -9 17 -3 0 6 -4 13 -8 16
-12 7 -7 51 6 49 5 -1 18 7 28 18 17 19 19 19 31 3 7 -10 13 -14 13 -9z m-155
-15 c3 -5 1 -10 -4 -10 -6 0 -11 5 -11 10 0 6 2 10 4 10 3 0 8 -4 11 -10z
m764 -387 c-6 -7 -15 -10 -20 -7 -13 8 -3 21 15 21 12 0 13 -4 5 -14z"/>
<path d="M10396 7529 c-8 -12 -18 -19 -23 -16 -14 9 -9 -29 6 -47 9 -11 10
-16 2 -17 -26 -3 -30 -4 -38 -13 -5 -5 -3 -6 5 -2 7 4 15 1 18 -8 3 -9 10 -14
14 -11 4 3 13 -2 20 -10 14 -17 30 -11 30 12 0 13 -2 14 -17 2 -14 -12 -16
-12 -8 0 5 9 4 12 -2 8 -5 -3 -10 0 -10 8 0 8 5 15 11 15 6 0 4 5 -4 10 -13 8
-13 10 -1 10 11 0 9 4 -5 15 -19 15 -19 15 1 9 14 -4 16 -3 7 4 -11 7 -11 10
2 15 8 3 18 2 22 -4 3 -6 13 -8 21 -5 8 3 11 1 8 -4 -4 -6 -3 -10 2 -9 20 4
24 -2 12 -18 -12 -14 -12 -16 0 -8 10 6 12 4 6 -5 -6 -9 -4 -11 4 -5 10 6 11
3 2 -14 -13 -24 -23 -29 -15 -7 3 8 0 17 -7 22 -7 4 -10 3 -5 -4 3 -6 2 -13
-4 -17 -5 -3 -10 -11 -10 -17 0 -6 3 -8 7 -5 13 14 33 -14 23 -33 -8 -14 -5
-17 15 -14 14 1 25 -2 25 -7 0 -6 5 -7 11 -3 8 4 7 9 -2 15 -8 5 -10 9 -5 9 5
0 4 6 -2 13 -7 8 -7 18 -2 27 8 13 10 13 10 1 0 -11 4 -10 16 5 8 10 13 13 9
7 -4 -9 0 -11 12 -7 15 5 16 4 3 -6 -13 -10 -12 -11 3 -6 12 4 16 2 12 -7 -4
-6 1 -3 10 8 15 19 16 19 10 -15 -3 -22 -2 -30 3 -22 7 11 10 10 16 -3 3 -9 3
-22 -1 -27 -4 -7 -1 -8 6 -4 7 5 10 15 6 23 -4 12 -3 13 8 5 8 -7 16 -10 18
-8 2 3 15 -4 29 -15 21 -17 21 -19 3 -10 -26 13 -40 -11 -17 -30 12 -10 13 -9
8 4 -4 12 0 15 15 14 12 -1 21 -5 21 -10 0 -4 5 -5 11 -1 8 5 8 9 -1 14 -9 5
-9 9 -1 14 6 4 11 2 11 -5 0 -7 3 -9 6 -6 4 4 1 13 -6 22 -10 12 -16 13 -26 4
-14 -12 -14 -12 -18 24 0 6 -5 12 -11 12 -5 1 -20 6 -32 13 -13 7 -23 9 -23 5
0 -4 -5 0 -11 10 -6 9 -14 15 -20 12 -5 -4 -21 3 -37 13 -15 11 -31 20 -37 20
-5 -1 -16 10 -22 23 -7 13 -13 20 -13 15 0 -5 -8 -2 -17 7 -18 15 -22 17 -44
17 -5 0 -7 5 -4 10 12 19 -4 10 -19 -11z m130 -81 c2 1 4 -1 4 -5 0 -5 -5 -8
-10 -8 -18 0 -30 -28 -18 -42 6 -7 8 -13 4 -13 -3 0 -8 0 -11 0 -3 0 -5 3 -6
8 0 4 -5 13 -11 19 -7 9 -6 14 5 19 16 6 17 20 2 44 -5 8 2 6 14 -5 13 -11 25
-19 27 -17z m104 -50 c0 -5 4 -7 9 -3 5 3 12 1 16 -5 4 -6 10 -8 14 -6 4 3 8
-1 8 -9 0 -10 -4 -12 -12 -5 -7 5 -14 8 -16 6 -2 -3 -15 3 -28 13 -17 13 -19
18 -7 18 9 0 16 -4 16 -9z"/>
<path d="M10414 7470 c-1 -29 3 -37 15 -35 9 1 15 8 13 15 -1 7 3 17 10 24 7
6 11 10 9 8 -2 -1 -14 4 -25 12 -20 13 -21 11 -22 -24z m21 11 c3 -5 2 -12 -3
-15 -5 -3 -9 1 -9 9 0 17 3 19 12 6z"/>
<path d="M10525 7387 c12 -19 12 -25 -1 -41 -8 -11 -14 -14 -14 -8 0 7 -5 12
-11 12 -8 0 -7 -5 1 -15 7 -9 15 -13 18 -10 3 3 13 -2 23 -11 9 -8 23 -16 31
-18 7 -1 18 -5 25 -9 8 -5 11 -1 10 13 -1 23 -8 25 -24 9 -9 -9 -11 -8 -9 4 1
9 6 20 11 24 4 4 5 3 2 -3 -4 -7 2 -10 17 -9 14 2 23 -2 23 -11 0 -7 -5 -10
-11 -7 -18 11 16 -29 48 -57 17 -14 32 -24 35 -23 3 1 15 -7 27 -18 11 -10 23
-16 27 -12 4 3 15 -2 26 -11 12 -11 21 -14 26 -7 9 16 28 14 22 -2 -3 -7 1
-21 9 -32 9 -12 14 -14 14 -5 0 9 9 5 26 -11 14 -13 27 -23 30 -21 11 6 25 1
19 -7 -3 -5 -1 -13 5 -16 6 -4 10 -3 9 2 -4 16 13 43 23 37 6 -4 5 3 -2 15 -9
18 -30 21 -30 5 0 -3 6 -2 13 2 9 6 9 5 0 -8 -7 -8 -10 -18 -6 -22 4 -4 -1 -4
-11 0 -10 4 -14 10 -9 13 4 3 9 13 11 21 2 8 12 24 23 35 17 19 17 23 3 43 -9
13 -20 19 -27 15 -21 -13 -39 -12 -33 3 5 14 -27 38 -37 28 -3 -3 -11 3 -18
14 -12 19 -14 19 -25 4 -11 -15 -12 -14 -7 7 4 15 2 22 -4 18 -6 -4 -18 2 -28
13 -17 19 -18 19 -37 -5 -16 -20 -23 -23 -38 -15 -16 8 -18 8 -14 -5 8 -20 -5
-19 -27 1 -15 13 -16 21 -7 37 11 21 10 21 -14 5 -23 -15 -28 -15 -44 -2 -17
12 -17 13 -1 8 9 -3 17 -1 17 5 0 6 -6 10 -12 9 -7 -2 -12 4 -12 13 1 9 -4 16
-10 17 -6 1 -23 3 -38 6 -26 4 -27 3 -13 -17z m33 -8 c-11 -8 -5 -13 14 -10 5
0 4 -23 -2 -39 -1 -3 -2 -8 -1 -12 2 -15 -14 -8 -26 12 -7 11 -9 21 -3 25 5 3
7 14 5 25 -3 13 1 17 12 13 12 -5 12 -7 1 -14z m231 -90 c-8 -5 -8 -8 0 -14 7
-4 18 -2 25 4 11 9 19 5 36 -16 12 -15 19 -20 16 -11 -3 12 -1 15 10 11 11 -4
12 -9 3 -19 -11 -13 -2 -19 24 -15 4 0 7 -4 7 -10 0 -6 -7 -8 -16 -5 -14 5
-15 4 -5 -8 15 -17 42 -10 35 9 -9 22 14 27 25 6 9 -16 6 -23 -15 -40 -15 -12
-24 -21 -20 -21 4 0 2 -9 -5 -21 l-11 -21 -22 21 c-12 12 -25 19 -28 15 -3 -3
-9 0 -14 7 -4 7 -3 10 4 5 7 -4 10 1 9 14 -2 25 -22 33 -38 14 -10 -13 -14
-12 -30 2 -11 10 -22 14 -26 11 -3 -4 -15 0 -25 9 -14 13 -15 20 -7 31 13 14
9 16 -15 7 -9 -3 -13 -11 -9 -18 3 -6 -10 4 -29 22 -19 18 -35 39 -35 48 0 11
6 9 23 -7 19 -18 26 -20 39 -9 8 7 15 9 15 5 0 -3 12 2 28 13 25 19 28 19 45
4 12 -11 14 -18 6 -23z"/>
<path d="M10546 7351 c-4 -5 -2 -12 3 -15 5 -4 12 -2 15 3 4 5 2 12 -3 15 -5
4 -12 2 -15 -3z"/>
<path d="M10751 7303 c-6 -10 -11 -14 -11 -9 0 5 -7 3 -15 -4 -8 -7 -15 -9
-15 -5 0 4 -7 2 -15 -5 -13 -10 -19 -9 -38 6 -19 17 -19 15 2 -9 14 -15 27
-24 30 -20 9 12 51 15 51 4 0 -5 -5 -13 -10 -16 -8 -5 -7 -11 1 -21 16 -20 28
-8 23 23 -3 15 -3 25 1 22 3 -4 8 -16 10 -29 2 -12 10 -28 16 -36 10 -13 14
-13 28 0 11 10 21 12 34 5 9 -6 15 -14 13 -18 -3 -4 6 -20 20 -37 14 -16 23
-23 19 -16 -3 6 -1 12 4 12 6 0 10 4 9 9 -2 4 7 17 19 27 18 15 20 22 12 34
-9 13 -10 12 -5 -2 3 -11 -2 -22 -14 -28 -17 -9 -25 -3 -57 39 -28 39 -40 48
-50 39 -16 -13 -44 7 -37 27 8 21 -14 27 -25 8z m16 -7 c-8 -20 30 -53 45 -38
8 8 21 -2 48 -36 35 -45 44 -76 14 -51 -7 6 -12 14 -10 18 5 8 -19 42 -31 43
-4 0 -7 4 -5 9 3 12 -9 11 -28 -1 -11 -7 -12 -10 -2 -10 8 0 12 -5 10 -11 -6
-17 -23 -11 -23 9 0 17 -22 47 -36 47 -4 0 -11 4 -16 9 -5 5 -3 6 5 2 7 -4 15
-1 18 8 3 9 8 16 11 16 3 0 3 -6 0 -14z m-20 -61 c0 -8 -4 -12 -9 -9 -5 3 -6
10 -3 15 9 13 12 11 12 -6z"/>
<path d="M10214 7616 c1 -6 7 -21 14 -32 6 -12 9 -24 7 -28 -3 -3 -2 -4 2 -1
3 3 12 0 19 -6 8 -7 14 -7 19 1 5 8 12 7 24 -4 15 -14 18 -13 28 3 10 15 9 18
-5 17 -9 0 -17 6 -17 14 0 8 -8 14 -17 12 -9 -1 -22 6 -30 16 -14 20 -47 26
-44 8z m78 -30 c7 4 10 4 6 -1 -4 -4 -2 -15 5 -24 11 -14 10 -14 -6 -2 -14 11
-20 12 -26 3 -5 -8 -14 -3 -29 17 -26 35 -17 49 14 20 14 -13 28 -18 36 -13z"/>
<path d="M10245 7590 c10 -11 20 -20 23 -20 3 0 -3 9 -13 20 -10 11 -20 20
-23 20 -3 0 3 -9 13 -20z"/>
<path d="M10356 7552 c-3 -5 1 -9 9 -9 8 0 12 4 9 9 -3 4 -7 8 -9 8 -2 0 -6
-4 -9 -8z"/>
<path d="M7840 1138 c-45 -79 -91 -159 -102 -178 -27 -47 -309 -537 -418 -725
-48 -82 -92 -159 -98 -170 -10 -20 -8 -20 696 -19 389 1 710 2 714 3 4 0 -22
51 -57 112 -36 62 -65 113 -65 114 0 2 -26 47 -58 102 -32 54 -70 118 -84 143
-23 43 -201 351 -360 625 -39 66 -73 124 -77 128 -5 4 -45 -56 -91 -135z"/>
</g>
</svg>
